<svg xmlns="http://www.w3.org/2000/svg" viewBox="0 0 696.38 176.69"><defs><style>      .st0 {        fill-rule: evenodd;      }      .st0, .st1 {        fill: #202958;        stroke: #fcd00c;        stroke-miterlimit: 10;      }      .st2 {        fill: #fff;      }      .st3 {        fill: #fbcf0d;      }      .st4 {        isolation: isolate;      }      .st5 {        mix-blend-mode: multiply;        opacity: .2;      }      .st6 {        fill: #fcd00c;      }      .st7 {        fill: #212121;      }    </style></defs><g class="st4"><g id="Layer_1"><g><path class="st2" d="M272.9,101.69c-.2.2-.5.4-.8.4-.2,0-.4,0-.6-.1-.2,0-.4-.1-.6-.1-1.3,0-2.5.2-3.7.6-1.2.3-2.5.6-3.7.8l-.7,6.3c0,.4-.1.8-.1,1.1,0,.5.2.7.5.7h.3c1.5-.4,3.1-.7,4.7-.8,1.4,0,1.8,0,1.4-.1.4,0,.8.3,1.1.7l.1.8c0,.1-.2.2-.3.2-.2,0-.4,0-.6.1-.2,0-.4.1-.6.1-2.2,0-4.4.4-6.5,1.1-.2,1.6-.3,3.3-.2,5-.1,1.2,0,2.4.2,3.5.1.1.2.3.3.4.1.1.2.2.2.3,0,.2-.1.3-.4.5-.2.1-.4.2-.6.3l-1-.5c-.5-1.6-.8-3.2-.7-4.9,0-1.6.1-3.9.4-7,.2-3.1.4-5.5.4-7.1,0-.3-.2-.5-.4-.6h0c-.3,0-.6-.1-.9-.2-.3-.2-.5-.4-.5-.6,0-.3.1-.5.3-.7.3-.1.6-.1.8-.1.3,0,.6-.1.8-.3,0-.2.1-.3.1-.5,0-.3.2-.6.7-.9.3-.2.6-.3.9-.3.2,0,.3.1.4.4v.7c0,.1.1.3.2.3l3.2-.7c1.1-.2,2.1-.3,3.2-.4.9.2,2,.7,2.7,1.6h0Z"></path><path class="st2" d="M282,110.39c0,.7-.1,1.7-.2,3.1s-.2,2.6-.2,3.6c0,.4,0,1.2.1,2.3.1,1.1.1,1.9.1,2.4,0,1-.1,1.6-.3,1.8-.5.3-1.2.1-1.5-.4v-.1c-.1-.4-.2-.8-.3-1.2-.8,1.1-2,1.8-3.3,1.9-.7,0-1.5-.3-2-.8-.6-.4-1.1-1-1.4-1.6-.4-1.4-.6-2.8-.5-4.3v-7.3c-.1-.7.2-1,1.1-1,.6,0,.9.4.9,1.1,0,1.1,0,2.5-.1,4.2-.1,2.2-.1,3.6-.1,4.2,0,.8.2,1.7.5,2.4.4,1,1,1.4,1.7,1.4,1.1,0,2-.8,2.6-2.3.5-1.2.7-2.5.7-3.8v-4.4c0-.3-.1-.5-.2-.8-.1-.2-.2-.5-.2-.8v-.4c.2-.3.6-.4.9-.5,1.2.1,1.7.4,1.7,1.3h0Z"></path><path class="st2" d="M291.8,110.99v.6c-.3.4-.6.7-.8.7s-.4-.1-.5-.3c-.1-1.4-.6-2.1-1.7-2.1-.7,0-1.4,1.3-2.1,4-.3,1.3-.4,2.6-.4,3.8,0,1.3,0,2.5.2,3.8,0,.1.1.2.2.4.1.2.1.3.1.5,0,.5-.3.7-1,.7s-1.1-.4-1.1-1.2c0-.2,0-.3.1-.5s.1-.3.1-.5c0-1.2-.1-3.1-.2-5.5-.1-2.5-.2-4.3-.2-5.5,0-.4.1-.7.2-.8.3-.1.6-.2.9-.1.6,0,.9.2,1,.6s0,.9.1,1.3c.6-.9.9-1.4,1-1.5.4-.5.9-.8,1.5-.8.4,0,.8.1,1.2.4.4.3.7.6.9,1,.2.2.4.6.5,1h0Z"></path><path class="st2" d="M298.8,112.39c-.4.2-.8.3-1.3.3-.4,0-.9.1-1.3.2v3.7c0,1.7,0,2.9.1,3.5,0,.4.1.8.2,1.2.1.4.2.8.2,1.2,0,.2-.1.4-.3.5-.2.2-.4.2-.6.3-.4,0-.8-.5-1.1-1.4-.2-.6-.3-1.3-.3-1.9v-7c-.5-.1-1-.1-1.5,0-.7.1-1-.2-1-.8,0-.9.9-1.2,2.7-1.2l.4-6.1c0-.1,0-.2-.1-.3,0-.1-.1-.2-.1-.3,0-.2.1-.3.3-.4.2-.1.4-.2.6-.1.8.1,1.2.5,1.2,1.2,0,.8-.1,1.7-.2,2.5s-.2,1.7-.2,2.5c0,.3,0,.5.1.8l1.8-.1c.6,0,.9.2.9.7s-.2.8-.5,1h0Z"></path><path class="st2" d="M309.4,123.79c-.3.2-.6.3-1,.3-.3,0-.6-.2-.8-.5v-4.6c0-5.7-.9-8.5-2.8-8.5-.9.1-1.6.6-2,1.4-.4.7-.7,1.6-.7,2.5,0,.1,0,.3-.1.4,0,.1-.1.3-.1.4v4.3c0,.6.1,1.1.2,1.6s.1,1.1.2,1.6c0,.4-.3.5-.8.5-.4,0-.8-.2-1-.5s-.4-.7-.4-1.1l.2-20.6c0-.1-.1-.3-.1-.4,0-.4.2-.6.7-.6.4.1.7.2,1,.4.4.3.7.6.7.8,0,.8-.1,1.6-.3,2.3-.2.7-.3,1.5-.3,2.3,0,.1,0,1.5.1,4.5.5-.6,1.2-.9,1.9-1.1.9,0,1.8.3,2.6.6,1.9.8,2.9,2.9,2.9,6.4l-.1,7.6h0Z"></path><path class="st2" d="M321.2,119.69c0,1-.7,1.9-2,2.7-1,.7-2.2,1-3.3,1.1-3,0-4.5-1.9-4.5-5.7,0-1.8.3-3.6.9-5.4.8-2.5,1.8-3.7,3.1-3.7,1.3.1,2.6.7,3.5,1.6,1.1.7,1.8,1.9,1.9,3.2,0,1.4-.6,2.7-1.7,3.6-1,1-2.4,1.5-3.8,1.5-.3-.1-.6-.2-.9-.3-.3-.2-.6-.3-.9-.3s-.4.1-.4.3c0,2.6.8,3.8,2.5,3.8.9,0,1.7-.3,2.4-.9.6-.5,1.1-1,1.5-1.6s.7-.8.8-.8c.6-.1.9.2.9.9ZM318.9,113.49c0-.8-.2-1.5-.7-2.2-.4-.6-1.1-1-1.8-1-1,.1-1.9.7-2.2,1.7-.5.9-.7,1.9-.7,2.9,0,.6.2,1.2.6,1.6s1,.7,1.6.7c.9,0,1.8-.4,2.3-1.2.6-.7.9-1.6.9-2.5h0Z"></path><path class="st2" d="M330.1,110.99v.6c-.3.4-.6.7-.8.7s-.4-.1-.5-.3c-.1-1.4-.6-2.1-1.7-2.1-.7,0-1.4,1.3-2.1,4-.3,1.3-.4,2.6-.4,3.8,0,1.3,0,2.5.2,3.8,0,.1.1.2.2.4.1.2.1.3.1.5,0,.5-.3.7-1,.7s-1.1-.4-1.1-1.2c0-.2,0-.3.1-.5s.1-.3.1-.5c0-1.2-.1-3.1-.2-5.5-.1-2.5-.2-4.3-.2-5.5,0-.4.1-.7.2-.8.3-.1.6-.2.9-.1.6,0,.9.2,1,.6s0,.9.1,1.3c.6-.9.9-1.4,1-1.5.4-.5.9-.8,1.5-.8.4,0,.8.1,1.2.4.4.3.7.6.9,1,.3.2.4.6.5,1h0Z"></path><path class="st2" d="M334.2,109.79c0,.6-.1,1.2-.3,1.8-.2.6-.2,1.2-.3,1.8v7.4c0,.7.1,1.3.3,2-.1.2-.2.3-.4.3-1.1,0-1.6-.5-1.6-1.6v-12.3c.3-.1.5-.2.8-.2s.6.1.8.2c.5.2.7.4.7.6ZM334.8,104.79c0,.8-.4,1.1-1.1,1.1-.4,0-.9-.2-1.2-.5-.3-.3-.5-.6-.5-1.1-.1-.5.3-1.1.8-1.1h.3c.4,0,.8.1,1.2.4.4.4.5.8.5,1.2h0Z"></path><path class="st2" d="M347.1,123.09c-.1.2-.3.4-.5.4-.4-.1-.8-.2-1.1-.5v-2c0-7.4-.9-11.1-2.8-11.1-.6,0-1.2.4-1.9,1.3-1.7,2.3-2.6,5.1-2.5,7.9,0,.6.1,1.2.2,1.9.1.6.2,1.2.2,1.9,0,.3-.2.5-.7.5-.9,0-1.3-.7-1.3-2.1v-9.4c0-.4-.1-.9-.1-1.3-.1-.4-.1-.8-.1-1.2,0-.2.1-.4.4-.6.2-.2.4-.3.6-.3.3,0,.6.2.8.5-.1,1.5-.1,2.3-.1,2.5v1c.2-.1.5-.4.8-1.1.3-.6.6-1.2,1.1-1.7.4-.6,1.1-.9,1.8-.9.4,0,.8.1,1.2.3,1.1.4,2,1.2,2.6,2.2,1,2.2,1.4,4.6,1.3,7l.1,4.8h0Z"></path><path class="st2" d="M359.1,112.89v.6c-.4,1.8-.6,3.6-.7,5.4,0,.7,0,1.7.1,3.2.1,1.4.1,2.5.1,3.2,0,1-.1,2-.3,3-.3.8-.8,1.4-1.5,1.8-.7.5-1.5.7-2.3.7-1.1,0-2.2-.2-3.2-.6-1.6-.5-2.3-1.1-2.3-1.8s.2-.9.7-.9c.2,0,.4.1.5.4.1.2.3.5.4.6.4.3.9.4,1.4.5s1,.2,1.5.3c1.1.1,2.2-.5,2.8-1.5.6-1,.9-2.1.8-3.2,0-1.2-.1-2.3-.4-3.4-.8,1.3-2.3,2.1-3.8,2.1-.6,0-1.1-.2-1.6-.4-.5-.2-1-.6-1.3-1-.7-1-1-2.2-.9-3.4,0-2.1.4-4.1,1-6.1.9-2.8,2.1-4.3,3.5-4.3,1.2,0,2.4,1,3.7,3.1.1.2.3.6.6,1,.4.2.8.4,1.2.7h0ZM357.1,114.69c0-.4-.2-.9-.5-1.2,0-.8-.3-1.7-.7-2.4-.4-.8-1.2-1.2-2.1-1.2-.6,0-1.2.7-1.8,2-.4.9-.7,1.9-.9,2.9-.2,1.1-.3,2.3-.3,3.4,0,2.7.8,4.1,2.4,4.1,1.2,0,2.2-1,3-3,.6-1.4.9-3,.9-4.6h0Z"></path><path class="st2" d="M378.6,109.79c-.2,1-.4,2-.5,3-.2,1-.3,2-.3,3v10.5c.1,1.3-.4,2.6-1.4,3.6-1,.9-2.3,1.4-3.6,1.3-1,0-1.9-.3-2.8-.7-1-.4-1.9-1-2.5-1.9-.1-.2-.2-.4-.2-.6,0-.7.3-1,.9-1,.2,0,.3,0,.4.1.4.4.8.8,1.1,1.2.8.7,1.8,1.1,2.9,1,1.2.1,2.4-.5,3-1.6.4-1.1.5-2.3.4-3.5,0-.4-.1-.9-.1-1.3-.1-.5-.1-1-.1-1.5-.4.4-.9.8-1.3,1.1-.5.3-1,.5-1.6.5-1.4.1-2.7-.6-3.4-1.8-.7-1.2-1.1-2.6-1-4,0-3,0-5.6.1-7.6,0-.6.5-1.1,1.1-1.1h.1c.8,0,1.2.1,1.1.4-.4,1.2-.6,3.8-.6,7.8,0,3.1.9,4.7,2.7,4.7,1.1,0,2-.8,2.6-2.5.5-1.2.7-2.6.7-3.9v-3.8c0-.4,0-.9.1-1.4.1-.6.4-.8,1.1-.8.7.1,1.2.4,1.1.8h0Z"></path><path class="st2" d="M390.8,116.29c0,1.8-.4,3.5-1.3,5-.8,1.6-2.4,2.6-4.2,2.6-1.6.1-3.2-.7-4.1-2.1-.8-1.4-1.2-3-1.1-4.6,0-1.9.4-3.8,1.3-5.6,1.1-2.3,2.4-3.4,4.1-3.4.7.1,1.3.3,1.8.7,2.4,1.5,3.5,4,3.5,7.4h0ZM389.2,116.29c0-1.3-.2-2.6-.6-3.9-.6-1.6-1.4-2.4-2.6-2.4-1.3,0-2.4.9-3.1,2.6-.6,1.4-.9,2.9-.9,4.4,0,1.2.2,2.4.6,3.5.4,1.2,1.5,2,2.7,2,1.4,0,2.6-1,3.1-2.3.6-1.1.9-2.5.8-3.9h0Z"></path><path class="st2" d="M402.1,110.39c0,.7-.1,1.7-.2,3.1-.1,1.2-.2,2.4-.2,3.6,0,.4,0,1.2.1,2.3s.1,1.9.1,2.4c0,1-.1,1.6-.3,1.8-.2.1-.4.1-.6.1-.4,0-.8-.2-1-.6-.1-.4-.2-.8-.3-1.2-.8,1.1-2,1.8-3.3,1.9-.7,0-1.5-.3-2-.8-.6-.4-1.1-1-1.4-1.6-.4-1.4-.6-2.8-.5-4.3v-7.3c-.1-.7.2-1,1.1-1,.6,0,.9.4.9,1.1,0,1.1,0,2.5-.1,4.2-.1,2.2-.1,3.6-.1,4.2,0,.8.2,1.7.5,2.4.4,1,1,1.4,1.7,1.4,1.1,0,2-.8,2.7-2.3.5-1.2.7-2.5.7-3.8v-4.4c0-.3-.1-.5-.2-.8-.1-.2-.2-.5-.2-.8v-.4c.3-.3.6-.4.9-.5,1.1.1,1.7.4,1.7,1.3h0Z"></path><path class="st2" d="M411.8,110.99v.6c-.3.4-.6.7-.8.7-.3,0-.3-.1-.5-.3-.1-1.4-.6-2.1-1.7-2.1-.7,0-1.4,1.3-2.1,4-.3,1.3-.4,2.6-.4,3.8,0,1.3,0,2.5.2,3.8,0,.1.1.2.2.4.1.2.1.3.1.5,0,.5-.3.7-1,.7s-1.2-.4-1.2-1.2c0-.2,0-.3.1-.5s.1-.3.1-.5c0-1.2-.1-3.1-.2-5.5s-.2-4.3-.2-5.5c0-.4.1-.7.2-.8.3-.1.6-.2.9-.1.6,0,.9.2,1,.6s0,.9.1,1.3c.6-.9.9-1.4,1-1.5.4-.5.9-.8,1.5-.8.4,0,.8.1,1.2.4.4.3.7.6.9,1,.3.1.5.6.6,1h0Z"></path><path class="st2" d="M430.4,119.69c0,1-.7,1.9-2,2.7-1,.7-2.2,1-3.3,1.1-3,0-4.5-1.9-4.5-5.7,0-1.8.3-3.6.9-5.4.8-2.5,1.8-3.7,3.1-3.7,1.3.1,2.6.7,3.5,1.6,1.1.7,1.8,1.9,1.9,3.2,0,1.4-.6,2.7-1.7,3.6-1,1-2.4,1.5-3.8,1.5-.3-.1-.6-.2-.9-.3-.3-.2-.6-.3-.9-.3s-.4.1-.4.3c0,2.6.8,3.8,2.5,3.8.9,0,1.7-.3,2.4-.9.6-.5,1.1-1,1.5-1.6s.7-.8.8-.8c.6-.1.9.2.9.9ZM428.1,113.49c0-.8-.2-1.5-.7-2.2-.4-.6-1.1-1-1.8-1-1,.1-1.9.7-2.2,1.7-.5.9-.7,1.9-.7,2.9,0,.6.2,1.2.6,1.6s1,.7,1.6.7c.9,0,1.8-.4,2.3-1.2.6-.7.9-1.6.9-2.5h0Z"></path><path class="st2" d="M447.3,123.19c-.3.2-.7.4-1.1.4-.2,0-.5-.1-.7-.2v-3.6c0-6.9-.7-10.3-2.1-10.3-.8,0-1.6,1.1-2.2,3.2-.4,1.4-.7,2.9-.7,4.4v3.3c0,.3.1.5.2.8.1.2.1.5.1.7s-.1.4-.4.5c-.2.2-.4.2-.6.3-.3,0-.5-.2-.7-.4-.2-.2-.3-.4-.4-.7v-6.8c0-.9-.1-1.8-.4-2.7-.3-1.4-.7-2.1-1.1-2.1-.2,0-.6.3-1.1.9-1.7,2.3-2.6,5.1-2.5,7.9,0,.6.1,1.1.1,1.7.1.6.1,1.1.1,1.7,0,.7-.3,1-.8,1-.3,0-.5-.1-.7-.3-.2-.5-.3-1-.3-1.5-.1-.5-.1-1.1-.2-1.6v-7.9c0-2.3.3-3.4.8-3.4.3,0,.5.1.7.3.2.2.3.4.4.6,0,.6-.1,1.2-.2,1.8-.1,1-.2,1.6-.2,1.8l.2.2c.4-1,.8-1.9,1.3-2.9.6-1.2,1.3-1.8,2.1-1.8,1.2,0,2.2,1.2,3,3.7.4-.5.6-1.1.8-1.7.2-.6.5-1.2.9-1.8.4-.5.9-.8,1.6-.8.8.1,1.5.6,2,1.2,1.4,1.5,2,4.1,2,7.9l.1,6.2h0Z"></path><path class="st2" d="M459.5,114.69c.1,1.9-.3,3.8-1,5.6-.9,2.1-2.2,3.1-4.1,3.1-1.3,0-2.5-.7-3.2-1.7-.2.1-.2.8-.2,2.1-.1,2.1.1,4.1.4,6.2.1.3.2.5.3.8.1.2.2.5.3.8,0,.4-.2.5-.7.5-.4,0-.8-.1-1.1-.2-.3-.4-.5-1-.6-1.5-.1-.6-.2-1.2-.2-1.7v-8.5c0-.8,0-1.8.1-3.1.1-1.5.1-2.6.1-3.1v-4.7c0-1.5.4-2.3,1.2-2.3.4,0,.6.1.6.4,0,.6,0,1.4-.1,2.4-.1,1.1-.1,1.9-.1,2.4h.1l1.5-2.1c.5-.7,1.4-1.1,2.3-1.1,1.4,0,2.7.7,3.4,2,.7.9,1.1,2.3,1,3.7h0ZM457.8,114.79c0-1-.1-2.1-.4-3.1-.4-1.2-1-1.9-1.8-1.9-.6,0-1.4.5-2.3,1.6-.7.9-1.3,1.9-1.6,3-.3,1.1-.5,2.2-.6,3.3-.1,1.1-.1,1.6-.1,1.5,0,0,.1.2.3.3.1.1.3.2.4.3.4.5.7,1,1.1,1.6.4.5,1,.8,1.6.8,1.2,0,2.1-1,2.8-3,.4-1.3.6-2.8.6-4.4h0Z"></path><path class="st2" d="M463.9,122.59c0,.6-.3.9-.9.9-1,0-1.5-2-1.4-6.1l.1-15c0-.4,0-.7-.1-1.1-.1-.3-.1-.7-.1-1,.3-.3.7-.4,1.1-.5.3,0,.7.1.9.3.3.2.5.5.5.8s-.1.6-.2.9c-.1.4-.2.7-.2.8-.3,2.1-.4,4.2-.4,6.4,0,4.4,0,6.5,0,6.4,0,2.1.2,4.1.5,6.2,0,.2.1.3.1.5.1.2.1.4.1.5h0Z"></path><path class="st2" d="M476.2,116.29c0,1.8-.4,3.5-1.3,5-.8,1.6-2.4,2.6-4.2,2.6-1.6.1-3.2-.7-4-2.1s-1.2-3-1.1-4.6c0-1.9.4-3.8,1.3-5.6,1.1-2.3,2.4-3.4,4.1-3.4.7.1,1.3.3,1.8.7,2.3,1.5,3.4,4,3.4,7.4h0ZM474.6,116.29c0-1.3-.2-2.6-.6-3.9-.6-1.6-1.4-2.4-2.6-2.4-1.3,0-2.4.9-3.1,2.6-.6,1.4-.9,2.9-.9,4.4,0,1.2.2,2.4.6,3.5.4,1.2,1.5,2,2.7,2,1.4,0,2.6-1,3.1-2.3.6-1.1.8-2.5.8-3.9h0Z"></path><path class="st2" d="M488.4,109.79c-.2,1-.4,2-.5,3-.2,1-.3,2-.3,3v10.5c.1,1.3-.4,2.6-1.4,3.6-1,.9-2.3,1.4-3.6,1.3-1,0-1.9-.3-2.8-.7-1-.3-1.8-1-2.4-1.8-.1-.2-.2-.4-.2-.6,0-.7.3-1,.9-1,.2,0,.3,0,.4.1.4.4.8.8,1.1,1.2.8.7,1.8,1.1,2.9,1,1.2.1,2.4-.5,3-1.6.4-1.1.5-2.3.4-3.5,0-.4-.1-.9-.1-1.3-.1-.5-.1-1-.1-1.5-.4.4-.9.8-1.3,1.1-.5.3-1,.5-1.6.5-1.4.1-2.7-.6-3.4-1.8-.7-1.2-1.1-2.6-1-4,0-3,0-5.6.1-7.6,0-.6.5-1.1,1.1-1.1h.1c.8,0,1.2.1,1.1.4-.4,1.2-.6,3.8-.6,7.8,0,3.1.9,4.7,2.7,4.7,1.1,0,2-.8,2.6-2.5.5-1.2.7-2.6.7-3.9v-3.8c0-.4,0-.9.1-1.4,0-.6.4-.8,1.1-.8.6,0,1,.3,1,.7h0Z"></path><path class="st2" d="M499.9,123.89c0,.3-.2.5-.7.5-.5.1-.9-.2-1-.7v-1.3c0-.2,0-.4-.1-.5-1.2.9-2.6,1.4-4,1.4-1,0-2-.3-2.9-.8-.9-.4-1.6-1.3-1.6-2.3,0-.9.6-1.8,1.9-2.7.9-.7,2-1.1,3.2-1.2h3.3c.2-.2.2-.4.2-.7,0-1.1-.1-2.3-.4-3.4-.2-1.1-1.2-1.9-2.4-1.9-1,.1-1.9.7-2.3,1.6-.6.8-.9,1.8-1,2.8v.4c0,.1-.1.3-.2.3h-.1c-.3,0-.6-.2-.7-.4-.2-.2-.4-.4-.4-.7,0-.8.2-1.6.6-2.4.3-.8.7-1.5,1.2-2.2.5-.6,1.3-.9,2.1-.9,1.3,0,2.5.4,3.5,1.2,1.1.7,1.7,1.9,1.7,3.1l.1,10.8h0ZM498.1,118.59c0-.9-.7-1.3-2.1-1.3-1,0-2,.2-2.9.6-.9.3-1.6,1.2-1.6,2.2,0,.6.3,1.1.8,1.4s1.1.4,1.7.4c1,0,1.9-.3,2.7-.9.9-.6,1.4-1.5,1.4-2.4h0Z"></path><path class="st2" d="M512,115.49c0,1.7-.2,3.3-.8,4.9-.5,1.6-1.9,2.7-3.6,2.7-.6,0-1.2-.2-1.7-.4l-1.7-.6c0,.1-.1.3-.1.4v1c0,.3-.2.5-.6.5s-.7-.2-.9-.5c-.3-.6-.4-1.3-.4-2-.1-.9-.1-1.6-.1-2.1v-.2l.6-18.7h.5c.4,0,.7.2.9.5.3.3.4.6.4,1,0,1.2-.1,2.5-.3,3.7-.2,1.2-.3,2.5-.3,3.7v1.3c.3-.2.5-.5.7-.8.2-.4.5-.8.9-1.2.4-.4,1-.6,1.6-.6,1.1,0,2.2.5,3,1.3s1.4,1.8,1.6,2.9.3,2.2.3,3.2ZM510.2,115.69c0-1.2-.1-2.4-.4-3.6-.4-1.6-1.1-2.4-2.1-2.4-1.2,0-2.2.9-2.9,2.7-.5,1.4-.8,2.8-.8,4.3,0,1.1.2,2.3.7,3.3.4,1.1,1.4,1.8,2.6,1.8,1.1,0,2-.8,2.5-2.4.3-1.1.5-2.4.4-3.7h0Z"></path><path class="st2" d="M516.9,109.79c0,.6-.1,1.2-.3,1.8-.2.6-.3,1.2-.3,1.8v7.4c0,.7.1,1.3.3,2-.1.2-.2.3-.4.3-1.1,0-1.6-.5-1.6-1.6v-12.3c.5-.3,1.2-.3,1.7,0,.4.2.6.4.6.6ZM517.5,104.79c0,.8-.3,1.1-1.1,1.1-.4,0-.9-.2-1.2-.5s-.5-.6-.5-1.1c-.1-.5.3-1.1.8-1.1h.3c.4,0,.8.2,1.2.4.4.4.5.8.5,1.2h0Z"></path><path class="st2" d="M521.7,122.59c0,.6-.3.9-.9.9-1,0-1.5-2-1.4-6.1l.1-15c0-.4,0-.7-.1-1.1-.1-.3-.1-.7-.1-1,.3-.3.7-.4,1.1-.5.3,0,.7.1.9.3.3.2.5.5.5.8s-.1.6-.2.9c-.1.5-.2.7-.2.8-.3,2.1-.4,4.2-.4,6.4,0,4.4,0,6.5,0,6.4,0,2.1.2,4.1.5,6.2,0,.2.1.3.1.5s.1.4.1.5h0Z"></path><path class="st2" d="M526,109.79c0,.6-.1,1.2-.3,1.8-.2.6-.3,1.2-.3,1.8v7.4c0,.7.1,1.3.3,2-.1.2-.2.3-.4.3-1.1,0-1.6-.5-1.6-1.6v-12.3c.5-.3,1.2-.3,1.7,0,.4.2.6.4.6.6ZM526.7,104.79c0,.8-.3,1.1-1.1,1.1-.4,0-.9-.2-1.2-.5s-.5-.6-.5-1.1c-.1-.5.3-1.1.8-1.1h.3c.4,0,.8.2,1.2.4.3.4.5.8.5,1.2h0Z"></path><path class="st2" d="M534,112.39c-.4.2-.8.3-1.3.3-.4,0-.9.1-1.3.2v3.7c0,1.7,0,2.9.1,3.5,0,.4.1.8.2,1.2.1.4.2.8.2,1.2,0,.2-.1.4-.3.5-.2.2-.4.2-.6.3-.4,0-.8-.5-1.1-1.4-.2-.6-.3-1.3-.3-1.9v-7c-.5-.1-1-.1-1.5,0-.7.1-1-.2-1-.8,0-.9.9-1.2,2.7-1.2l.4-6.1c0-.1,0-.2-.1-.3,0-.1-.1-.2-.1-.3,0-.2.1-.3.3-.4s.4-.2.6-.1c.8.1,1.2.5,1.2,1.2,0,.8-.1,1.7-.2,2.5-.1.8-.2,1.7-.2,2.5,0,.3,0,.5.1.8l1.8-.1c.6,0,.9.2.9.7s-.2.8-.5,1h0Z"></path><path class="st2" d="M545.5,109.79c-.2,1-.4,2-.5,3-.2,1-.3,2-.3,3v10.5c.1,1.3-.4,2.6-1.4,3.6-1,.9-2.3,1.4-3.6,1.3-1,0-1.9-.3-2.8-.7-1-.3-1.8-1-2.4-1.8-.1-.2-.2-.4-.2-.6,0-.5.3-.9.8-1,.2,0,.4,0,.5.1l1.1,1.2c.8.7,1.8,1.1,2.9,1,1.2.2,2.4-.5,3-1.6.4-1.1.5-2.3.4-3.5,0-.4-.1-.9-.1-1.3-.1-.5-.1-1-.1-1.5-.4.4-.9.8-1.3,1.1-.5.3-1,.5-1.6.5-1.4.1-2.7-.6-3.4-1.8-.7-1.2-1.1-2.6-1-4,0-3,0-5.6.1-7.6,0-.6.5-1.1,1.1-1.1h.1c.8,0,1.2.1,1.1.4-.4,1.2-.6,3.8-.6,7.8,0,3.1.9,4.7,2.7,4.7,1.1,0,2-.8,2.6-2.5.5-1.2.7-2.6.7-3.9v-3.8c0-.4,0-.9.1-1.4,0-.6.4-.8,1.1-.8.6,0,1,.3,1,.7h0Z"></path><path class="st2" d="M564.2,114.69c0,1.9-.3,3.8-1,5.6-.9,2.1-2.2,3.1-4.1,3.1-1.3,0-2.5-.7-3.2-1.7-.2.1-.2.8-.2,2.1-.1,2.1.1,4.1.4,6.2.1.3.2.5.3.8.1.2.2.5.3.8,0,.4-.2.5-.7.5-.4,0-.8,0-1.1-.2-.2-.2-.4-.7-.6-1.5-.1-.6-.2-1.2-.2-1.7v-8.5c0-.8,0-1.8.1-3.1.1-1.5.1-2.6.1-3.1v-4.7c0-1.5.4-2.3,1.2-2.3.4,0,.6.1.6.4,0,.6,0,1.4-.1,2.4-.1,1.1-.1,1.9-.1,2.4h.1c.5-.7,1-1.4,1.5-2.1s1.4-1.2,2.2-1.2c1.4,0,2.7.7,3.4,2,.8,1,1.2,2.4,1.1,3.8h0ZM562.5,114.79c0-1-.1-2.1-.4-3.1-.4-1.2-1-1.9-1.8-1.9-.6,0-1.4.5-2.3,1.6-.7.9-1.3,1.9-1.6,3s-.5,2.2-.6,3.3c-.1,1.1-.1,1.6-.1,1.5,0,0,.1.2.3.3.2.2.3.2.4.3l1.1,1.6c.4.5,1,.8,1.6.8,1.2,0,2.1-1,2.8-3,.4-1.2.6-2.8.6-4.4h0Z"></path><path class="st2" d="M576.5,116.29c0,1.8-.4,3.5-1.3,5-.8,1.6-2.4,2.6-4.2,2.6-1.6.1-3.2-.7-4-2.1s-1.2-3-1.1-4.6c0-1.9.4-3.8,1.3-5.6,1.1-2.3,2.4-3.4,4.1-3.4.7.1,1.3.3,1.8.7,2.3,1.5,3.4,4,3.4,7.4ZM574.9,116.29c0-1.3-.2-2.6-.6-3.9-.6-1.6-1.4-2.4-2.6-2.4-1.3,0-2.4.9-3.1,2.6-.6,1.4-.9,2.9-.9,4.4,0,1.2.2,2.4.6,3.5.4,1.2,1.5,2,2.7,2,1.4,0,2.6-1,3.1-2.3.6-1.1.8-2.5.8-3.9h0Z"></path><path class="st2" d="M583.8,112.39c-.4.2-.8.3-1.3.3-.4,0-.9.1-1.3.2v3.7c0,1.7,0,2.9.1,3.5,0,.4.1.8.2,1.2.1.4.2.8.2,1.2,0,.2-.1.4-.3.5-.2.2-.4.2-.6.3-.4,0-.8-.5-1.1-1.4-.2-.6-.3-1.3-.3-1.9v-7c-.5-.1-1-.1-1.5,0-.7.1-1-.2-1-.8,0-.9.9-1.2,2.7-1.2l.4-6.1c0-.1,0-.2-.1-.3,0-.1-.1-.2-.1-.3,0-.2.1-.3.3-.4s.4-.2.6-.1c.8.1,1.2.5,1.2,1.2,0,.8-.1,1.7-.2,2.5-.1.8-.2,1.7-.2,2.5,0,.3,0,.5.1.8l1.8-.1c.6,0,1,.2,1,.7-.1.5-.3.8-.6,1h0Z"></path><path class="st2" d="M594.5,119.69c0,1-.7,1.9-2,2.7-1,.7-2.2,1-3.3,1.1-3,0-4.5-1.9-4.5-5.7,0-1.8.3-3.6.9-5.4.8-2.5,1.8-3.7,3.1-3.7,1.3.1,2.6.7,3.5,1.6,1.1.7,1.8,1.9,1.9,3.2,0,1.4-.6,2.7-1.7,3.6-1,1-2.4,1.5-3.8,1.5-.3-.1-.6-.2-.9-.3-.3-.2-.6-.3-.9-.3s-.4.1-.4.3c0,2.6.9,3.8,2.5,3.8.9,0,1.7-.3,2.4-.9.6-.5,1.1-1,1.5-1.6s.7-.8.8-.8c.6-.1.9.2.9.9ZM592.2,113.49c0-.8-.2-1.5-.7-2.2-.4-.6-1.1-1-1.8-1-1,.1-1.8.7-2.2,1.7-.5.9-.7,1.9-.7,2.9,0,.6.2,1.2.6,1.6.4.4,1,.7,1.6.7.9,0,1.8-.4,2.3-1.2.6-.7.9-1.6.9-2.5h0Z"></path><path class="st2" d="M606.6,123.09c-.1.2-.3.4-.5.4-.4-.1-.8-.2-1.1-.5v-2c0-7.4-.9-11.1-2.8-11.1-.6,0-1.2.4-1.9,1.3-1.7,2.3-2.6,5.1-2.5,7.9,0,.6.1,1.2.2,1.9.1.6.2,1.2.2,1.9,0,.3-.2.5-.7.5-.9,0-1.3-.7-1.3-2.1v-9.4c0-.4-.1-.9-.1-1.3-.1-.4-.1-.8-.1-1.2,0-.2.1-.4.4-.6.2-.2.4-.3.7-.3s.6.2.8.5c-.1,1.5-.1,2.3-.1,2.5v1c.2-.1.5-.4.8-1.1.3-.6.6-1.2,1.1-1.7.4-.6,1.1-.9,1.8-.9.4,0,.8.1,1.2.3,1.1.4,2,1.2,2.6,2.2,1,2.2,1.4,4.6,1.3,7v4.8h0Z"></path><path class="st2" d="M614.4,112.39c-.4.2-.8.3-1.3.3-.4,0-.9.1-1.3.2v3.7c0,1.7,0,2.9.1,3.5,0,.4.1.8.2,1.2.1.4.2.8.2,1.3,0,.2-.1.4-.3.5-.2.2-.4.2-.6.3-.4,0-.8-.5-1.1-1.4-.2-.6-.3-1.3-.3-1.9v-7c-.1-.1-.6-.1-1.5,0-.7.1-1-.2-1-.8,0-.9.9-1.2,2.7-1.2l.4-6.1c0-.1,0-.2-.1-.3,0-.1-.1-.2-.1-.3,0-.2.1-.3.3-.4s.4-.2.6-.1c.8.1,1.2.5,1.2,1.2,0,.8-.1,1.7-.2,2.5-.1.8-.2,1.7-.2,2.5,0,.3,0,.5.1.8l1.8-.1c.6,0,.9.2.9.7-.1.4-.2.7-.5.9h0Z"></path><path class="st2" d="M618.9,109.79c0,.6-.1,1.2-.3,1.8-.2.6-.3,1.2-.3,1.8v7.4c0,.7.1,1.3.3,2-.1.2-.2.3-.4.3-1.1,0-1.6-.5-1.6-1.6v-12.3c.5-.3,1.2-.3,1.7,0,.4.2.6.4.6.6ZM619.5,104.79c0,.8-.4,1.1-1.1,1.1-.4,0-.9-.2-1.2-.5s-.5-.6-.5-1.1c-.1-.5.3-1.1.8-1.1h.3c.4,0,.8.2,1.2.4.4.4.5.8.5,1.2Z"></path><path class="st2" d="M630.8,123.89c0,.3-.2.5-.7.5-.5.1-.9-.2-1-.7v-1.3c0-.2,0-.4-.1-.5-1.2.9-2.6,1.4-4.1,1.4-1,0-2-.3-2.9-.8-.9-.4-1.6-1.3-1.6-2.3,0-.9.6-1.8,1.9-2.7.9-.7,2-1.1,3.2-1.2h3.3c.2-.2.2-.4.2-.7,0-1.1-.1-2.3-.4-3.4-.2-1.1-1.2-1.9-2.4-1.9-1,.1-1.9.7-2.3,1.6-.6.8-.9,1.8-1,2.8v.4c0,.2-.1.3-.3.3-.3,0-.6-.2-.7-.4-.2-.2-.4-.4-.4-.7,0-.8.2-1.6.6-2.4.3-.8.7-1.5,1.2-2.2.5-.6,1.3-.9,2.1-.9,1.3,0,2.5.4,3.5,1.2,1,.7,1.7,1.9,1.7,3.1,0,0,.2,10.8.2,10.8ZM629.1,118.59c0-.9-.7-1.3-2.1-1.3-1,0-2,.2-2.9.6-.9.3-1.6,1.2-1.6,2.2,0,.6.3,1.1.8,1.4s1.1.5,1.7.4c1,0,1.9-.3,2.7-.9.9-.6,1.4-1.5,1.4-2.4h0Z"></path><path class="st2" d="M635.7,122.59c0,.6-.3.9-.9.9-1,0-1.5-2-1.4-6.1l.1-15c0-.4,0-.7-.1-1.1-.1-.3-.1-.7-.1-1,.3-.3.7-.4,1.1-.5.3,0,.7.1.9.3.3.2.5.5.5.8s-.1.6-.2.9c-.1.5-.2.7-.2.8-.3,2.1-.4,4.2-.4,6.4,0,4.4,0,6.5,0,6.4,0,2.1.2,4.1.5,6.2,0,.2.1.3.1.5.1.2.1.4.1.5h0Z"></path><g><path class="st2" d="M204.89,78.87c-.1,2.11-.67,3.98-1.71,5.6-1.04,1.62-2.51,2.88-4.39,3.77s-4.04,1.34-6.46,1.34c-3.99,0-7.14-1.3-9.43-3.9s-3.44-6.27-3.44-11.02v-1.5c0-2.98.52-5.58,1.55-7.81,1.04-2.23,2.53-3.96,4.48-5.17,1.95-1.22,4.2-1.83,6.76-1.83,3.69,0,6.65.97,8.89,2.91s3.51,4.61,3.82,8.02h-7.3c-.06-1.85-.52-3.18-1.4-3.98-.88-.81-2.21-1.21-4.01-1.21s-3.16.68-4.01,2.04c-.85,1.36-1.29,3.54-1.34,6.53v2.15c0,3.24.41,5.56,1.22,6.95s2.21,2.09,4.2,2.09c1.68,0,2.97-.4,3.86-1.19s1.36-2.05,1.42-3.78h7.29Z"></path><path class="st2" d="M234.08,74.59c0,2.96-.55,5.58-1.65,7.87-1.1,2.28-2.66,4.04-4.68,5.27s-4.33,1.85-6.92,1.85-4.88-.59-6.89-1.78c-2-1.19-3.56-2.89-4.68-5.1s-1.71-4.75-1.76-7.62v-1.71c0-2.98.55-5.6,1.64-7.88,1.09-2.27,2.66-4.03,4.69-5.27,2.04-1.24,4.36-1.86,6.96-1.86s4.87.61,6.88,1.84c2.02,1.22,3.59,2.97,4.71,5.23,1.12,2.26,1.69,4.85,1.7,7.77v1.4h0ZM226.64,73.32c0-3.02-.5-5.31-1.51-6.88-1.01-1.56-2.45-2.35-4.33-2.35-3.67,0-5.61,2.75-5.82,8.26l-.02,2.23c0,2.98.49,5.27,1.48,6.86.99,1.6,2.45,2.4,4.4,2.4s3.28-.79,4.28-2.36,1.51-3.83,1.52-6.78v-1.4.02Z"></path><path class="st2" d="M253.53,81.08c0-1.07-.38-1.91-1.14-2.5-.76-.6-2.09-1.22-4-1.86s-3.46-1.26-4.67-1.86c-3.94-1.93-5.9-4.59-5.9-7.97,0-1.68.49-3.17,1.47-4.45.98-1.29,2.37-2.29,4.16-3s3.81-1.07,6.05-1.07,4.14.39,5.87,1.17,3.08,1.89,4.04,3.33c.96,1.44,1.44,3.08,1.44,4.93h-7.3c0-1.24-.38-2.2-1.14-2.88s-1.78-1.02-3.08-1.02-2.34.29-3.1.87c-.76.58-1.14,1.31-1.14,2.2,0,.78.42,1.48,1.25,2.12.83.63,2.3,1.29,4.4,1.96,2.1.67,3.82,1.4,5.17,2.18,3.28,1.89,4.92,4.5,4.92,7.82,0,2.66-1,4.74-3,6.26s-4.75,2.27-8.24,2.27c-2.46,0-4.69-.44-6.69-1.33-2-.88-3.5-2.09-4.51-3.63s-1.51-3.31-1.51-5.31h7.34c0,1.63.42,2.83,1.26,3.6s2.21,1.16,4.1,1.16c1.21,0,2.17-.26,2.87-.78s1.05-1.25,1.05-2.2h.03Z"></path><path class="st2" d="M274.23,58.77l6.78,21.14,6.76-21.14h9.64v30.38h-7.34v-7.09l.71-14.52-7.34,21.62h-4.84l-7.37-21.64.71,14.54v7.09h-7.32v-30.38h9.62-.01Z"></path><path class="st2" d="M327.79,74.59c0,2.96-.55,5.58-1.65,7.87-1.1,2.28-2.66,4.04-4.68,5.27s-4.33,1.85-6.92,1.85-4.88-.59-6.89-1.78c-2-1.19-3.56-2.89-4.68-5.1s-1.71-4.75-1.76-7.62v-1.71c0-2.98.55-5.6,1.64-7.88,1.09-2.27,2.66-4.03,4.69-5.27,2.04-1.24,4.36-1.86,6.96-1.86s4.87.61,6.88,1.84c2.02,1.22,3.59,2.97,4.71,5.23s1.69,4.85,1.7,7.77v1.4h0ZM320.34,73.32c0-3.02-.5-5.31-1.51-6.88-1.01-1.56-2.45-2.35-4.33-2.35-3.67,0-5.61,2.75-5.82,8.26l-.02,2.23c0,2.98.49,5.27,1.48,6.86.99,1.6,2.45,2.4,4.4,2.4s3.28-.79,4.28-2.36,1.51-3.83,1.52-6.78v-1.4.02Z"></path><path class="st2" d="M338.89,78.85v10.31h-7.32v-30.38h12.12c2.32,0,4.38.43,6.17,1.28,1.79.86,3.17,2.07,4.15,3.65s1.47,3.37,1.47,5.37c0,2.96-1.06,5.33-3.18,7.1s-5.03,2.66-8.73,2.66h-4.68ZM338.89,73.19h4.8c1.42,0,2.5-.35,3.24-1.06s1.12-1.71,1.12-3c0-1.42-.38-2.55-1.15-3.4s-1.81-1.28-3.13-1.29h-4.88v8.76h0Z"></path><path class="st2" d="M385.1,74.59c0,2.96-.55,5.58-1.65,7.87s-2.66,4.04-4.68,5.27-4.33,1.85-6.92,1.85-4.88-.59-6.88-1.78-3.56-2.89-4.68-5.1-1.71-4.75-1.76-7.62v-1.71c0-2.98.55-5.6,1.64-7.88,1.09-2.27,2.66-4.03,4.69-5.27,2.04-1.24,4.36-1.86,6.96-1.86s4.87.61,6.88,1.84c2.02,1.22,3.58,2.97,4.71,5.23,1.12,2.26,1.69,4.85,1.7,7.77v1.4h-.01ZM377.65,73.32c0-3.02-.5-5.31-1.51-6.88s-2.45-2.35-4.33-2.35c-3.67,0-5.61,2.75-5.82,8.26l-.02,2.23c0,2.98.49,5.27,1.48,6.86.99,1.6,2.46,2.4,4.4,2.4s3.28-.79,4.28-2.36,1.51-3.83,1.52-6.78v-1.4.02Z"></path><path class="st2" d="M396.2,83.52h12.75v5.63h-20.07v-30.38h7.32v24.75Z"></path><path class="st2" d="M419.84,89.15h-7.3v-30.38h7.3v30.38Z"></path><path class="st2" d="M448.17,64.43h-9.12v24.72h-7.32v-24.72h-8.95v-5.65h25.39v5.65h0Z"></path><path class="st2" d="M466.01,83.48h-10.04l-1.75,5.68h-7.82l11.14-30.38h6.88l11.23,30.38h-7.87l-1.77-5.68h0ZM457.73,77.82h6.53l-3.28-10.54-3.25,10.54Z"></path><path class="st2" d="M503.23,89.15h-7.28l-10.77-18.9v18.9h-7.32v-30.38h7.32l10.75,18.9v-18.9h7.3v30.38Z"></path><path class="st2" d="M543.08,78.87c-.1,2.11-.67,3.98-1.71,5.6-1.04,1.62-2.51,2.88-4.39,3.77s-4.04,1.34-6.46,1.34c-3.99,0-7.13-1.3-9.43-3.9-2.29-2.6-3.44-6.27-3.44-11.02v-1.5c0-2.98.52-5.58,1.55-7.81,1.04-2.23,2.53-3.96,4.48-5.17,1.95-1.22,4.2-1.83,6.76-1.83,3.69,0,6.65.97,8.89,2.91s3.51,4.61,3.82,8.02h-7.3c-.06-1.85-.52-3.18-1.4-3.98s-2.21-1.21-4.01-1.21-3.16.68-4.01,2.04-1.29,3.54-1.33,6.53v2.15c0,3.24.41,5.56,1.22,6.95s2.21,2.09,4.2,2.09c1.68,0,2.97-.4,3.86-1.19s1.36-2.05,1.42-3.78h7.28Z"></path><path class="st2" d="M572.27,74.59c0,2.96-.55,5.58-1.65,7.87s-2.66,4.04-4.68,5.27-4.33,1.85-6.92,1.85-4.88-.59-6.88-1.78-3.56-2.89-4.68-5.1-1.71-4.75-1.76-7.62v-1.71c0-2.98.55-5.6,1.64-7.88,1.09-2.27,2.66-4.03,4.69-5.27,2.04-1.24,4.36-1.86,6.96-1.86s4.87.61,6.88,1.84c2.02,1.22,3.58,2.97,4.71,5.23,1.12,2.26,1.69,4.85,1.7,7.77v1.4h-.01ZM564.83,73.32c0-3.02-.5-5.31-1.51-6.88s-2.45-2.35-4.33-2.35c-3.67,0-5.61,2.75-5.82,8.26l-.02,2.23c0,2.98.49,5.27,1.48,6.86.99,1.6,2.46,2.4,4.4,2.4s3.28-.79,4.28-2.36,1.51-3.83,1.52-6.78v-1.4.02Z"></path><path class="st2" d="M583.37,83.52h12.75v5.63h-20.07v-30.38h7.32v24.75Z"></path><path class="st2" d="M606.53,83.52h12.75v5.63h-20.07v-30.38h7.32v24.75Z"></path><path class="st2" d="M641.21,76.26h-11.52v7.26h13.6v5.63h-20.93v-30.38h20.97v5.65h-13.65v6.41h11.52v5.42h.01Z"></path><path class="st2" d="M671.15,85.4c-1.13,1.25-2.77,2.26-4.94,3.02-2.17.77-4.55,1.15-7.14,1.15-3.98,0-7.16-1.22-9.54-3.65s-3.65-5.82-3.82-10.16l-.02-2.63c0-2.99.53-5.6,1.59-7.83,1.06-2.23,2.57-3.95,4.54-5.15s4.25-1.8,6.83-1.8c3.78,0,6.72.87,8.81,2.6s3.31,4.32,3.66,7.75h-7.05c-.25-1.7-.79-2.91-1.63-3.63-.83-.72-2.02-1.08-3.55-1.08-1.84,0-3.25.78-4.26,2.34-1,1.56-1.51,3.78-1.52,6.68v1.84c0,3.03.52,5.31,1.55,6.83,1.04,1.52,2.67,2.28,4.89,2.28,1.91,0,3.32-.42,4.26-1.27v-4.72h-5.09v-5.03h12.41v12.48l.02-.02Z"></path><path class="st2" d="M694.25,76.26h-11.52v7.26h13.6v5.63h-20.93v-30.38h20.97v5.65h-13.65v6.41h11.52v5.42h.01Z"></path></g></g><g><g><path class="st0" d="M165.25,93.87c0,44.77-36.29,81.06-81.06,81.06S3.14,138.64,3.14,93.87,39.43,12.82,84.2,12.82s81.06,36.29,81.06,81.06"></path><g><path class="st3" d="M36.76,101.42l.04.12c-.13,3.41-1.14,6.01-3.02,7.81-1.88,1.8-4.61,2.69-8.19,2.69s-6.51-1.1-8.76-3.31c-2.25-2.21-3.37-5.08-3.37-8.6v-6.07c0-3.51,1.08-6.38,3.24-8.59,2.16-2.22,4.97-3.32,8.43-3.32,3.67,0,6.48.93,8.42,2.77,1.94,1.85,3.04,4.48,3.29,7.88l-.04.12h-6.57c-.09-1.89-.52-3.29-1.27-4.21-.75-.92-2.03-1.38-3.84-1.38-1.53,0-2.73.62-3.61,1.85-.88,1.23-1.32,2.84-1.32,4.84v6.11c0,2.01.48,3.63,1.44,4.87.96,1.24,2.28,1.86,3.95,1.86s2.77-.43,3.45-1.3c.68-.86,1.06-2.24,1.16-4.13h6.57Z"></path><path class="st3" d="M86.36,103.91c0-1.02-.34-1.82-1.02-2.38-.68-.56-1.9-1.15-3.65-1.78-3.67-1.16-6.39-2.4-8.16-3.72-1.77-1.32-2.66-3.24-2.66-5.74s1.05-4.4,3.16-5.91c2.11-1.5,4.79-2.26,8.03-2.26s5.86.83,7.91,2.49,3.05,3.79,2.98,6.4l-.04.12h-6.55c0-1.16-.39-2.1-1.18-2.82-.79-.73-1.87-1.09-3.25-1.09s-2.42.3-3.19.9c-.77.6-1.16,1.34-1.16,2.22s.39,1.53,1.17,2.05c.78.51,2.24,1.15,4.38,1.93,3.3.99,5.79,2.2,7.46,3.63,1.67,1.44,2.51,3.41,2.51,5.93s-.99,4.55-2.98,6c-1.99,1.44-4.63,2.17-7.91,2.17s-6.16-.83-8.56-2.49c-2.41-1.66-3.58-4.04-3.51-7.16l.04-.12h6.57c0,1.68.45,2.87,1.36,3.59.9.72,2.28,1.08,4.11,1.08,1.4,0,2.44-.28,3.12-.84.69-.56,1.03-1.29,1.03-2.2Z"></path><path class="st3" d="M105.61,82.55l6.51,20.34h.12l6.59-20.34h8.9v29.06h-6.77v-7.21l.64-13.27-.12-.02-7.01,20.5h-4.55l-6.93-20.32-.12.02.64,13.1v7.21h-6.77v-29.06h8.86Z"></path><path class="st3" d="M156.31,99.7c0,3.58-1.13,6.53-3.4,8.85-2.27,2.32-5.23,3.48-8.89,3.48s-6.67-1.16-8.96-3.48c-2.29-2.32-3.43-5.27-3.43-8.85v-5.23c0-3.57,1.14-6.51,3.42-8.84,2.28-2.33,5.26-3.49,8.93-3.49s6.61,1.16,8.9,3.49c2.29,2.33,3.43,5.28,3.43,8.84v5.23ZM149.58,94.43c0-2.08-.49-3.78-1.47-5.11-.98-1.33-2.36-2-4.14-2s-3.22.66-4.18,1.99c-.97,1.32-1.45,3.03-1.45,5.12v5.27c0,2.1.49,3.82,1.47,5.15.98,1.33,2.38,2,4.2,2s3.14-.67,4.11-2c.97-1.33,1.46-3.05,1.46-5.15v-5.27Z"></path></g></g><g><path class="st6" d="M111.92,120.24c.27.17.66.3,1.07.3.61,0,.97-.32.97-.79,0-.43-.25-.68-.87-.92-.76-.27-1.22-.66-1.22-1.31,0-.72.6-1.26,1.5-1.26.47,0,.82.11,1.03.23l-.17.49c-.15-.08-.46-.22-.88-.22-.63,0-.87.38-.87.69,0,.43.28.65.92.89.78.3,1.18.68,1.18,1.36,0,.72-.53,1.33-1.62,1.33-.45,0-.94-.13-1.18-.3l.15-.5Z"></path><path class="st6" d="M116.05,116.7c0,.21-.14.37-.39.37-.21,0-.36-.17-.36-.37s.16-.38.38-.38.37.17.37.38ZM115.37,120.96v-3.33h.61v3.33h-.61Z"></path><path class="st6" d="M116.98,118.54c0-.34,0-.63-.03-.9h.54l.03.55h.01c.17-.32.55-.63,1.1-.63.46,0,1.18.28,1.18,1.42v1.99h-.61v-1.92c0-.54-.2-.98-.77-.98-.4,0-.71.28-.81.62-.03.08-.04.18-.04.28v2h-.61v-2.43Z"></path><path class="st6" d="M123.17,120.84c-.16.08-.51.19-.96.19-1,0-1.66-.68-1.66-1.7s.7-1.77,1.79-1.77c.36,0,.67.09.84.17l-.14.47c-.14-.08-.37-.16-.7-.16-.76,0-1.18.56-1.18,1.26,0,.77.5,1.25,1.16,1.25.34,0,.57-.09.74-.17l.1.45Z"></path><path class="st6" d="M124.18,119.41c.01.82.54,1.16,1.14,1.16.43,0,.69-.08.92-.17l.1.43c-.21.1-.58.21-1.11.21-1.03,0-1.64-.67-1.64-1.68s.59-1.8,1.56-1.8c1.09,0,1.38.96,1.38,1.57,0,.12-.01.22-.02.28h-2.34ZM125.95,118.98c0-.39-.16-.98-.84-.98-.61,0-.88.56-.93.98h1.77Z"></path><path class="st6" d="M128.56,120.96v-.37l.47-.46c1.14-1.09,1.66-1.67,1.67-2.34,0-.45-.22-.87-.89-.87-.41,0-.74.21-.95.38l-.19-.43c.31-.26.75-.45,1.27-.45.96,0,1.37.66,1.37,1.3,0,.83-.6,1.49-1.54,2.4l-.36.33h0s2.01.01,2.01.01v.5h-2.86Z"></path><path class="st6" d="M135.06,118.68c0,1.52-.56,2.36-1.55,2.36-.87,0-1.47-.82-1.48-2.3,0-1.5.65-2.33,1.56-2.33s1.48.84,1.48,2.26ZM132.63,118.75c0,1.16.36,1.82.91,1.82.62,0,.92-.72.92-1.86s-.28-1.82-.91-1.82c-.53,0-.92.65-.92,1.86Z"></path><path class="st6" d="M138.59,118.68c0,1.52-.56,2.36-1.56,2.36-.87,0-1.47-.82-1.48-2.3,0-1.5.65-2.33,1.55-2.33s1.48.84,1.48,2.26ZM136.16,118.75c0,1.16.36,1.82.91,1.82.62,0,.92-.72.92-1.86s-.28-1.82-.91-1.82c-.53,0-.92.65-.92,1.86Z"></path><path class="st6" d="M141.02,120.96v-1.22h-2.08v-.4l2-2.86h.65v2.78h.63v.47h-.63v1.22h-.57ZM141.02,119.27v-1.49c0-.23,0-.47.02-.7h-.02c-.14.26-.25.45-.37.66l-1.09,1.52h0s1.47.01,1.47.01Z"></path></g><g><circle class="st1" cx="54.02" cy="96.88" r="14.74"></circle><g class="st5"><path class="st7" d="M39.98,95.49c.03-.24.09-.48.15-.71-.04.1-.11.19-.2.28.01.13.03.3.05.43Z"></path><path class="st7" d="M40.21,94.44c-.02.11-.05.22-.08.33.05-.11.07-.22.08-.33Z"></path><path class="st7" d="M40.61,102.71s0-.01,0-.02c0,0,0,0,0,0v.02Z"></path><path class="st7" d="M53.69,103.56c.02-.09.14-.92-.72-1.15-.08-.21-.1-.24-.28-.4.04.74.11,1.44,1.01,1.55Z"></path><path class="st7" d="M39.74,94.45c-.01.06-.02.14-.04.23.01-.08.03-.16.04-.23Z"></path><path class="st7" d="M52.68,102.02s0-.07,0-.11c0,.03,0,.07,0,.11,0,0,0,0,0,0Z"></path><path class="st7" d="M39.66,94.95s.01-.1.02-.14c0,.04-.01.08-.02.13h0Z"></path><polygon class="st7" points="40.67 95.16 40.67 95.16 40.67 95.16 40.67 95.16 40.67 95.16"></polygon><path class="st7" d="M64.08,87.66c-.24-.45-.55-.71-.75-.88q.01-.23-.43-.65c.39.23,1.01.68,1.01.68-.09-.19-.25-.34-.31-.54,0,0,0,0,.01,0-.33-.27-.44-.35-.66-.42.06.06.15.14.21.2-1.5-1.01-1.66-1.12-2.38-1.26.12.19.33.28.47.45-.26-.07-.4-.31-.61-.45.02.04.04.1.06.14-.08-.03-.2-.06-.28-.07-.33.28-1.59-.49-1.6-.5,0,0-1.24-.44-1.32-.45,0,.1.04.23.1.31-.04.02-.09.06-.12.08-.04-.02-.1-.04-.14-.06-.03.03-.08.06-.11.09-.09-.04-.2-.1-.28-.15.02.1.06.24.09.34-.59-.11-.74-.77-1.25-.97-.01.09-.07.21-.13.28q-1-.14-1.42-.12.66-.9.08-.94s-.08-.05-.12-.07c-.01-.04-.02-.09-.03-.13t-.56.4c-.52-.16-1.94,1.03-1.95,1.05.01.04.03.1.04.14-.04,0-.1.01-.14.01-.01-.04-.03-.1-.04-.15-.04-.01-.09-.03-.14-.05-.08.14-.2.25-.28.39-.04,0-.09,0-.14.01q.01-.1.27-.46c-.45.34-.77.59-.96,1.13.08.01.19.04.27.07,0,.25,0,.28-.1.51-.03-.04-.06-.09-.09-.13.02-.09.05-.21.08-.3-.09,0-.21.03-.29.07-.17.59-.86.86-.87.86q.04-.17,1.35-1.77c.12-.18.32-.29.37-.52-.93-.01-.96,1-1.54,1.38-.05-.08-.11-.19-.14-.28-.08-.04-.17-.12-.21-.2-.25.15-.32.44-.54.62,0-.04.01-.1.02-.15q-.06.02-.61.21c.05-.07.12-.16.18-.23-.7.22-.95.42-1.31.71.07-.23.29-.34.41-.53-.04,0-.09-.02-.13-.03-.51.66-.69.8-.8.88-.44-.08-.5.43-.83.53,0-.04,0-.1,0-.15-.05.02-.11.04-.15.06-.01.08-.07.18-.13.24q-.04-.22.58-1.03c.02.09.07.21.14.27.51-.13.66-.44.96-1.05-.03-.03-.07-.07-.1-.1.03-.05.07-.12.09-.17-.03-.03-.08-.07-.11-.09-1,.4-3.43,2.13-4.71,4.14.08-.06.18-.16.25-.24-.2.4-.48.76-.63,1.18,0,0,.29-.31.82-1.1.65-.51,1.01-1.28,1.63-1.81.37-.39.42-.43.65-.61-.25.88-1.32,1.05-1.64,1.88.04.02.1.04.14.05.05-.03.11-.06.15-.08.02.03.06.08.08.11-.37.32-.67.69-1.01,1.03-.01,0-.01,0-.01,0h0s.04-.08.06-.12c-.04,0-.1,0-.14,0-.12.18-.26.44-.37.63-.07.08-.16.19-.22.28,0-.04-.01-.1-.02-.14q-.27.29-.35.35s-.05-.08-.07-.12c.08-.2.1-.26.6-1.06,0,0-.85,1.15-1.4,2.4-.15.38-.25.65-.34.92-.21.62-.37,1.26-.49,1.91.02-.08.04-.15.06-.24.06-.26.09-.39.12-.52.08-.08.16-.2.21-.3-.05.37.09.76.06,1.13.04-.18.06-.35.06-.54-.13-.41.11-.94.11-.94.07.81-.24,1.62.03,2.42.05-.06.1-.16.11-.24.04,0,.11.04.15.02q-.04-.1.04-.89c.4.38.05.88.22,1.3.04,0,.1-.01.14-.02.02-.05.05-.11.07-.16.03.05.06.11.08.16.1,0,.24-.03.32-.09.34.51-.42,1.48-.44,1.48-.41-.07-.66-.33-.76-.43-.04,0-.1.01-.14.02-.02.18-.02.35-.05.53-.26-.14-.27-.19-.37-1.74-.05.03-.11.07-.16.1,0,.04-.02.1-.03.14-.06.57-.08,1.06-.08,1.55,0,.81.07,1.61.19,2.39.13.78.31,1.54.56,2.27.1.31.22.62.34.93,1.12,1.38,1.79,3.08,2.99,4.41.42.46,2.63,2.41,3.14,2.38,0-.04.01-.1.02-.15-.43-.49-.78-1.04-1.23-1.51-.45-.48-.46-1.19-.86-1.7-.84-1.07-1.07-1.35-1-2.07.09-.89.71-1.72.29-2.67-.37.3-.56.32-.81.35-.05-.09-.12-.21-.18-.3,0,0,1.06-.96,1.47-1.04.65-1.06.61-1.62-.12-1.79-.02-.13-.05-.3-.07-.43-.09.45-.35.49-.64.52q-.5-1.29-.5-1.33c.07-.05.18-.1.27-.11.19.53.43,1.19.87.75.64.55,1.7.17,2.2,1.02.05-.02.12-.04.17-.06.02.04.05.09.07.13-.03.02-.08.05-.11.08.06.42.41.25.41.25.04-.03.06-.09.08-.13.42,1.78.87,2.77,1.35,2.92.08-.07.17-.19.23-.28.25-.43-.09-.93.15-1.37.29-.52.99-.61,1.26-1.16q.6-.06.77-.25c.19.49,1.05.72.72,1.38.2.19.31.12.64-.13.42.35.46.93.5,1.5,0-.14.02-.28.16-.6q.36.03.58.4c.39.07.54.14.44.52.23-.12.65-.34.79-.52.03-.04.08-.1.11-.15.52-.75-.99-1.01-.64-1.82q.14-.32,1.17-.46c1.44-.19,1.95-1.22,2.14-1.6.37-.73-.21-1.32-.31-1.98.16-.12.35-.14.52-.22,0-.42-.28-.42-.53-.29-.13-.04-.3-.12-.39-.22.1-.2.56-.61.71-.69q.1.2.05.52c.41-.29.53-.29.69-.29q.21.65.31.66.02.84.07.88.47-.23.2-1.44.78-.93.92-.9c1.33-.9,1.16-1.95,1.05-2.65.03-.47-.12-.66-.29-.84q-.49.07-.83-.2c.25-.52.52-1.03.76-1.55.37.1.74-.02,1.11,0,.1.12.16.18.57.16.03-.34-.3-.71.07-1.02.04.01.09.03.13.04.03.11.09.26.13.36.04-.01.1-.03.15-.04.02-.1.05-.24.06-.34.03.02.08.05.12.07.1.6-.29,1.14-.18,1.74,0,.01.61,1.66.85,1.89.04-.03.09-.06.12-.09.01-.25-.13-.51.04-.75l-.5-2.21s.07-.06.11-.09c.04.02.1.05.14.07.01-.05.03-.12.04-.17.1,0,.23.04.31.1.05-.27-.01-.55.03-.82q.2.04.41.24ZM41.32,97.84c-.14-.5-.22-.77-.3-.91.04.05.1.16.31.95,0-.01,0-.03-.01-.04ZM42.84,101.26c-.14-.2-.23-.3-.3-.39-.08-.09-.24-.11-.26-.25-.09-.45-.28-.63-.38-.72,0-.17-.04-.39-.07-.49-.06-.22-.17-.42-.24-.63-.15-.51-.26-.91-.26-.91,0,0,.03-.18.11-.09.03.03.18.38.18.39.02.04.04.1.06.15.04.11.04.24.08.36.04.1.12.17.17.27.09.2.08.44.22.62q.15.2.76,1.79s-.04-.07-.06-.1Z"></path><path class="st7" d="M39.76,94.36s-.01.06-.02.09c0-.03.01-.06.02-.09Z"></path><path class="st7" d="M39.68,94.81s.01-.08.02-.12c0,.01,0,.02,0,.03,0,.03,0,.06-.01.09Z"></path><path class="st7" d="M41.15,90.33s0,0,0,0c0-.02.02-.04.03-.06,0,.02-.02.04-.03.06Z"></path><path class="st7" d="M40.74,91.2c.04-.1.11-.26.26-.56,0,0,0,0,0-.01h0c-.11.22-.22.45-.32.68.02-.04.03-.07.05-.11Z"></path><path class="st7" d="M41,90.62h0c.05-.1.09-.19.14-.29-.05.1-.09.17-.14.29Z"></path><path class="st7" d="M48.89,101.92c-.15.1-.14.53.02.65.06.05.3.12.27-.18,0-.08-.02-.26-.29-.48Z"></path><path class="st7" d="M54.07,104.35c-.48-.23-.55-.43-.58-.52-.12-.34-1.27-1.03-1.66-1.1.19.15.83.68.95.98.1.24.26.49.47.74.11.13.32.35.49.41.09.03.33.11.35-.14,0-.09,0-.24-.02-.37Z"></path><path class="st7" d="M55.9,105.34h0s0,0,0,0c-.28-.04-.5-.26-.79-.27-.15,0-.3.03-.46,0-.11-.03-.17-.08-.2-.11-.04-.04-.11-.04-.15-.04-.16,0-.2.05-.22.07-.04.08.19.21.36.26.18.06.37.03.55.06.12.02.24.06.36.09.27.05.54-.05.54-.05Z"></path><path class="st7" d="M54.71,103.5c-.18.24-.02.36.04.41.06.05.2.15.16.45.37-.1.73.13.73.13.14.11.46.17.52-.36.08-.04.25-.11.3-.47.2.07.27-.03.28-.06h0s0-.04-.02-.05c-.04-.02-.08,0-.11-.02-.05-.02-.27-.18-.24-.39q0-.06.32-.15s-.05,0-.07-.08c.05-.04.13-.09.12-.15-.17-.04-.26-.23-.45-.24-.01,0-.04,0-.06.01-.12.08-.15.23-.27.31-.07.05-.17,0-.23.07-.02.02-.05.01-.06.04-.02.04.01.08,0,.12,0,0,0,.02-.01.03,0,.01-.02.02-.03.02-.06.03-.14,0-.2.04-.09.06-.14.16-.22.24-.08.08-.12.08-.19.05-.14-.06-.24,0-.24,0-.02.01-.05.03-.06.05Z"></path><path class="st7" d="M56.97,103.62s-.07.05-.11.12c-.03.05-.02.11-.05.17,0,.02-.03.02-.04.04t-.01.1c-.01.13-.04.17-.15.28-.06.06-.06.07-.06.09.01.01.02.02.07.02.08.01.09.02.09.12-.02.25-.02.31.04.33h0s.1-.01.1-.09c.02-.36.05-.39.11-.4.03,0,.07.02.12.15.03.07.1.25.18.3.09.05.12-.18.12-.18,0-.06-.08-.05-.1-.09-.02-.05.03-.1.02-.16-.21-.08-.11-.27-.1-.28.02-.04.08-.06.1-.06.06-.02.15-.04.24-.13-.15-.07-.29.03-.43.02h0c-.08,0-.12.08-.19.1-.04-.02,0-.19.1-.27.06-.05.19-.03.28-.02.46.05.6-.16.62-.2,0,0,.05-.1-.03-.12-.02,0-.03,0-.05.04-.06.09-.13.11-.28.14-.16.02-.17.02-.22,0,0,0-.13-.06-.28-.04-.02,0-.04.01-.06.02Z"></path><path class="st7" d="M56.56,105.39s0-.04-.06-.05c0,0-.02,0-.02,0,0,0-.02,0-.02,0-.04,0-.08,0-.11,0-.06,0-.12-.02-.18-.02-.05,0-.11.01-.21.1.02.06.1.07.15.06.04,0,.08,0,.11-.01.06-.01.12-.03.19-.04.04,0,.09,0,.13-.01.02,0,.03-.01.04-.02Z"></path><path class="st7" d="M56.51,105.61s.07,0,.1.02c.05.02.04.07.05.1,0,.02.02.01.03,0,.08-.03.1-.03.1-.05,0-.02-.01-.05-.02-.06-.09-.1-.09-.1-.12-.11-.04,0-.07.01-.11.01-.02,0-.04,0-.05,0,0,0-.01,0-.01,0-.01,0-.02.04-.02.04,0,.02,0,.04.05.06Z"></path><path class="st7" d="M57.23,105.74s.03-.02.05-.02c.11-.01.2-.08.25-.13q.07-.08.08-.08s.07-.02.1-.02c.14,0,.18-.05.19-.07.03-.05-.04-.06-.1-.06-.13,0-.18.03-.2.05-.06.04-.09.1-.14.14-.05.04-.11.04-.16.08-.06.05-.11.13-.16.2.06-.06.1-.09.1-.09Z"></path><path class="st7" d="M61.16,104.97c-.03-.13.03-.28-.06-.41-.08-.12-.33-.18-.61-.25,0-.02-.03-.04-.05-.04-.06-.02-.39-.13-.52-.11-.1.01-.18.08-.33.21-.04.04-.25.2-.16-.26.03-.17.02-.19-.16-.2-.33,0-.52.04-.55.12.06.08.17.07.22.16.03.05,0,.12.04.17.02.04.08.04.1.09q.02.05.01.18s.01,0,.02,0c.02-.02.04-.03.12-.12.16.16.24.2.43.22.04,0,.13.02.21.1.08.08.2.47-.07.39-.13-.04-.12.03-.09.09.09.19.36-.14.44.05.02.04.02.06.04.15.16.05.23,0,.26,0,.09-.04.12-.15.19-.21.21-.2.33-.01.43.22.03.08.07.16.14.17,0,0,.26.02.28.01.02-.01,0-.04,0-.07-.08-.23-.26-.42-.32-.66Z"></path><path class="st7" d="M57.13,105.43c.09-.02.19-.04.32-.05.01,0,.03,0,.04,0-.05-.02-.12-.02-.17-.03-.1,0-.17.01-.28.03-.02,0-.04.01-.06.01,0,0,0,0-.01,0-.07-.03-.2-.04-.25-.04h0s-.05,0-.06.01c0,0,.08.11.24.11.02,0,.04,0,.23-.04Z"></path><path class="st7" d="M57.99,104.56h0s0,0,0,0c.06,0,.07-.06.07-.06.02-.06-.05-.09-.09-.09,0,0,0,0-.01,0-.01.02-.04.03-.07.04.01.04.04.1.1.1Z"></path><path class="st7" d="M58.27,104.37c-.04.12-.03.16-.02.18t.03,0c.07-.03.14-.06.23-.06.07,0,.14.04.21.04,0,0,.02,0,.02,0,0,0,.03,0,.05-.02.08-.09-.31-.12-.51-.14Z"></path><path class="st7" d="M58.2,103.61s0,0,0,.01c0,.02.01.02.04.04.03.01.05.03.07.05.02.03.01.07,0,.08-.05.19-.03.23-.02.23,0,0,.02,0,.03,0,0,0,.17-.22.17-.22h0s0-.08-.03-.14c-.07-.14-.06-.2.07-.33-.03.02-.3.21-.33.28Z"></path><path class="st7" d="M59.22,105.09s.03-.04.04-.04c.02-.03.03-.07.05-.11.01-.02.03-.04.04-.06,0-.02,0-.04-.05-.09-.01.03-.11.26-.22.28-.01,0-.03,0-.03.02,0,.02.11.05.17,0Z"></path><path class="st7" d="M58.73,105.1s0,0-.01.02c0,.02-.01.06-.04.09-.02.02-.04.03-.04.03,0,0-.04.04-.05.05,0,0,0,0,0,0,0,0-.01.02,0,.03.01.02.14.02.18-.09h0c.02-.06,0-.13,0-.13Z"></path><path class="st7" d="M58.54,109.99c.45-.44,1.01-.76,1.42-1.24.14-.16.53-.6.36-.81.09-.17.07-.18-.02-.21.14-.32.11-.34-.02-.46-.25-.22.06-.48.04-.72t-.14-.12c.05-.18.15-.57.03-.65-.06.02-.12.12-.28.45-.33.67-.36.68-.44.7-.02,0-.75-.26-.35-.62.23-.21.23-.31,0-.33-.81-.04-.93.15-1.08.39-.08.12-.17.15-.2.14-.02,0-.04-.01-.05-.02.02-.02.06-.07.04-.1-.07-.16-.6-.04-.86.49-.02-.1-.03-.17-.12-.12-.17.09-.14.3-.25.42-.08.08-.12.09-.27.11-.05,0-.49.07-.87.35-.08.06-.19.15-.2.19-.04.12.02.24,0,.37-.01.08-.07.13-.08.21,0,.04.04.16.1.35.13.37.16.51,0,.61-.03.19,0,.23.22.23.16,0,.22-.21.39-.18.18.03.4-.03.4-.03,0,0,.8-.33,1.08-.29.11.02.25.2.16.35-.05.07-.01.11,0,.13.04-.06.08-.11.38-.29,0,0,.02,0,.02.01-.01.04-.03.08-.19.24.02,0,.04-.02.06-.02t-.07.13.08.01c-.02.1-.12.16-.13.27q0,.06.11.16s.06,0,.22-.11c-.03.24.35-.07.52-.01Z"></path><path class="st7" d="M57.46,110.13s-.11.1-.11.15c-.09.08-.16.14-.16.17,0,.08.36-.16.37-.16.03-.02.09-.07.14-.13,0,0-.18.07-.24-.02Z"></path><path class="st7" d="M59.25,96.69c0,.15.09.28.1.28.05.05.09.02.13-.01.17-.16.23-.22.24-.34,0-.09-.06-.39-.27-.42-.14,0-.24.15-.28.24.03.02.09.04.18,0,.02,0,.02,0,.03,0,0,0,0,.01-.03.04-.08.11-.09.18-.1.21Z"></path><path class="st7" d="M61.23,94.18c-.12.02-.12.03-.12.27,0,.11-.02.41-.16.76q-.04.09-.22.15c-.14.05-.17.2-.27.28-.2.19-.48.06-.7.17-.03.02-.11.06-.19.14-.01.02-.03.04-.05.05,0,0-.03.03-.07.09.19.07.22.04.22.04.21-.18.42-.22.63-.13q-.02.17.02.21c.16.21.26-.12.3-.35.07.03.13.1.2.13.05.02.06.02.12,0,.07-.02.14-.16.19-.26.01.09.05.12.07.13.08.03.35-.01.13-.87.12-.1.16-.22.17-.25.03-.11-.02-.54-.27-.58Z"></path><path class="st7" d="M61.65,93.97c.09-.05.09-.12.1-.15,0-.07,0-.12.11-.13.01,0,.06,0,.15,0,0-.03.01-.06.02-.08h0c.01-.19-.12-.25-.2-.29-.26-.12-.4-.19-.51-.41-.04.01-.06.08-.07.14,0,.14.03.27.03.41,0,.08-.04.12-.05.13-.04.04-.09.02-.13.05-.07.04-.15.22.19.33-.11-.08-.11-.12-.11-.15.14-.09.27.06.33.11.05.05.1.08.16.05Z"></path><path class="st7" d="M61.64,91.89c-.34-.39-.47-.84-.58-1.19-.14-.46-.16-.51-.19-.55-.08.06-.02.45,0,.56.03.18.11.34.14.51.03.19.02.39.05.58,0,.04.02.1.03.14.03.16.16.68.19.78-.01-.06,0-.1,0-.12.01-.04.14-.22.33.13-.02-.27-.28-.41-.33-.66-.06-.27.05-.42.35-.2h0s0,0,0,0Z"></path><path class="st7" d="M62.56,92.86s.03.03.05.01c.05-.03.13-.1.16-.14,0,0,0,0,0,0-.03-.02-.05-.03-.09-.03-.1,0-.13.13-.13.16Z"></path><path class="st7" d="M62.45,92.88c-.09,0-.26.18-.24.32.17-.02.28-.16.28-.27,0-.04-.02-.04-.04-.04Z"></path><path class="st7" d="M59.85,96.6s0,.01,0,.01c.02-.01.06-.21.07-.25,0,0,0-.02,0-.03.02-.06.11-.04.19-.02.05.01.06.01.07,0,0,0,.02-.02.02-.06,0-.13-.15-.2-.19-.2,0,0-.2.03-.25.2,0,0,0,.02,0,.03.02.07.05.13.07.2.01.05.02.08.02.11Z"></path><path class="st7" d="M57.53,98.4c-.17.02-.34.34-.35.36,0,0,0,.31.08.42.05.06.12.04.13.02,0-.01,0-.05,0-.07,0-.09-.01-.15.04-.23.05-.08.11-.15.15-.23.01-.02.03-.06.04-.1h0s.01-.15-.09-.16Z"></path><path class="st7" d="M55.25,99.64s0-.03,0-.03c0,0-.01,0-.04.02-.02.02-.06.04-.1.05-.04.01-.09,0-.13,0-.07,0-.41.19-.29.37.07.1.27.1.37.03.15-.11.19-.44.19-.45Z"></path><path class="st7" d="M61.98,104.32c.06.07.13.15.14.2,0,.02,0,.04-.02.06-.03.03-.06.04-.09.07-.05.04-.08.09-.13.13-.01,0-.03.02-.06.04-.08.03-.19,0-.28-.08.01.06.03.13.04.17.02.05.05.14.16.09.15-.06.5-.33.53-.39h0s0-.16-.02-.19c-.02-.02-.08-.08-.26-.1Z"></path><path class="st7" d="M45.4,106.67c-.06.03-.06.06-.02.13.11.19.29.33.41.5.07.11.1.24.17.34.07.09.49.52.62.57,0,0,.17.06.07-.17,0-.02-.02-.04-.03-.06-.11-.2-.23-.39-.34-.58-.18-.31-.31-.65-.49-.97-.21-.36-.28-.38-.3-.39t.04.22c.11.3.04.33-.13.4Z"></path><path class="st7" d="M49.07,84.58c.07-.24.43-.54,1.06-.89.43-.23,1.16-.57,1.45-.64.13-.03.47-.12.7-.23q.12-.05.15-.09s-.02,0-.02,0c-.2.03-.38.16-.59.17,0,0,0-.01-.01-.01-.87.19-2.32,1.04-2.33,1.05,0,0,0,.01,0,.02-.15.11-.36.13-.47.3,0,0,0,.01,0,.02.01,0,.03,0,.04,0,0,.13-.27.17-.18.3,0,0,.14.01.19,0Z"></path><path class="st7" d="M58.21,102.02c-.13.02-.21.17-.35.15q-.19-.02-.23-.01s-.06.02-.09.04c-.14.11-.15.43-.15.44.03-.05.04-.11.07-.16.01-.03.04-.06.06-.08.04-.03.17-.06.23-.07.05,0,.13,0,.09.07-.04.08-.08.22.11.3.02,0,.1.04.11,0,0-.01,0-.05-.01-.06-.01-.05-.03-.1-.02-.14,0-.08.09-.14.1-.13.02,0,.03.02.05.08.03.1.04.11.05.11,0,0,.03-.02.04-.12h0s.06-.37-.05-.41Z"></path><path class="st7" d="M57.07,100.71s.05.08.09.11c.04.03.07.06.08.09.01.04-.06.06-.03.11.03.05.16.15.22.07.01-.02.07-.14-.03-.18-.02-.01-.06-.03-.02-.17.06-.18.12-.2.17-.23.03-.01.06-.02.07-.06h0s.04-.21-.06-.22c-.01-.09-.03-.22-.29-.23-.01,0-.02,0-.04,0,0,.01-.02.03-.02.05-.04.16.03.31.02.46,0,.05-.02.08-.09.12-.04.02-.07.04-.07.07Z"></path><path class="st7" d="M57.91,101.26s-.01-.11-.06-.14c-.08-.05-.15-.05-.19-.06-.03,0-.05,0-.07.01.18.12.2.25.21.31,0,.01,0,.06.02.08.01,0,.02,0,.05,0,.07-.04.08-.03.11-.03.04.07-.21.25-.23.26-.02,0-.02,0-.04-.04-.05-.12-.17-.13-.23-.13-.04,0-.05.01-.05.05,0,.03.02.2.05.31,0,.02,0,.03,0,.04,0,.01,0,.02-.03.06-.04.06-.07.1-.05.11.02.02.31-.13.31-.13.07-.04.12-.1.18-.14.04-.02.1-.03.14-.04.05-.01.14-.03.18-.16.02-.08,0-.18-.04-.23-.07-.07-.18-.07-.25-.13Z"></path><path class="st7" d="M57.29,101.46s.05-.08.06-.14c.02-.15-.1-.17-.17-.17-.07,0-.09.02-.09.02.09.06.23.17.21.28,0,.02,0,.02,0,.02Z"></path><path class="st7" d="M56.91,101.56s-.01,0-.02.01c-.01.01-.03.06-.05.1-.02.05-.06.14-.11.18-.02.02-.03.02-.06.04-.09.05-.21.13-.27.2-.03.04-.04.07-.02.09,0,0,.02.03.06,0,.08-.05.23-.13.32-.23.03-.03.15-.19.16-.31,0-.04,0-.1-.02-.1Z"></path><path class="st7" d="M59.58,110s0,0-.01,0c-.22.1-.41.24-.63.34-.25.11-.51.17-.75.28-.27.13-.29.14-.31.17,0,0,.02,0,.02,0,0,0,0,.01-.01.02.04,0,.29-.09.39-.13.04-.01.88-.36,1.13-.49.07-.04.12-.06.13-.09-.01,0-.02,0-.03,0,0-.06.06-.06.09-.1Z"></path><path class="st7" d="M60.69,109.33c-.24.24-.43.34-.54.39-.06.03-.13.06-.15.08-.04.03-.04.04-.06.07,0,.02-.03.05-.18.13q-.18.1-.18.12s.02.01.13-.05c.16-.08.32-.19.48-.27.06-.03.13-.04.19-.07.05-.03.12-.07.22-.13.11-.07.12-.08.12-.1-.07.01-.12.09-.2.08,0,0,0,0,0,0,.06-.1.19-.12.24-.22-.02.01-.04.03-.07.03,0,0,0,0,0,0,.01-.04.07-.08.11-.11.12-.08.18-.17.19-.22,0,0,0,0,0,0t-.29.28Z"></path></g><g><path class="st6" d="M39.75,95.26c.03-.24.09-.48.15-.71-.04.1-.11.19-.2.28.01.13.03.3.05.43Z"></path><path class="st6" d="M39.99,94.21c-.02.11-.05.22-.08.33.05-.11.07-.22.08-.33Z"></path><path class="st6" d="M40.38,102.48s0-.01,0-.02c0,0,0,0,0,0v.02Z"></path><path class="st6" d="M53.46,103.34c.02-.09.14-.92-.72-1.15-.08-.21-.1-.24-.28-.4.04.74.11,1.44,1.01,1.55Z"></path><path class="st6" d="M39.52,94.22c-.01.06-.02.14-.04.23.01-.08.03-.16.04-.23Z"></path><path class="st6" d="M52.46,101.79s0-.07,0-.11c0,.03,0,.07,0,.11,0,0,0,0,0,0Z"></path><path class="st6" d="M39.43,94.72s.01-.1.02-.14c0,.04-.01.08-.02.13h0Z"></path><polygon class="st6" points="40.45 94.94 40.45 94.94 40.45 94.94 40.45 94.94 40.45 94.94"></polygon><path class="st6" d="M63.85,87.43c-.24-.45-.55-.71-.75-.88q.01-.23-.43-.65c.39.23,1.01.68,1.01.68-.09-.19-.25-.34-.31-.54,0,0,0,0,.01,0-.33-.27-.44-.35-.66-.42.06.06.15.14.21.2-1.5-1.01-1.66-1.12-2.38-1.26.12.19.33.28.47.45-.26-.07-.4-.31-.61-.45.02.04.04.1.06.14-.08-.03-.2-.06-.28-.07-.33.28-1.59-.49-1.6-.5,0,0-1.24-.44-1.32-.45,0,.1.04.23.1.31-.04.02-.09.06-.12.08-.04-.02-.1-.04-.14-.06-.03.03-.08.06-.11.09-.09-.04-.2-.1-.28-.15.02.1.06.24.09.34-.59-.11-.74-.77-1.25-.97-.01.09-.07.21-.13.28q-1-.14-1.42-.12.66-.9.08-.94s-.08-.05-.12-.07c-.01-.04-.02-.09-.03-.13t-.56.4c-.52-.16-1.94,1.03-1.95,1.05.01.04.03.1.04.14-.04,0-.1.01-.14.01-.01-.04-.03-.1-.04-.15-.04-.01-.09-.03-.14-.05-.08.14-.2.25-.28.39-.04,0-.09,0-.14.01q.01-.1.27-.46c-.45.34-.77.59-.96,1.13.08.01.19.04.27.07,0,.25,0,.28-.1.51-.03-.04-.06-.09-.09-.13.02-.09.05-.21.08-.3-.09,0-.21.03-.29.07-.17.59-.86.86-.87.86q.04-.17,1.35-1.77c.12-.18.32-.29.37-.52-.93-.01-.96,1-1.54,1.38-.05-.08-.11-.19-.14-.28-.08-.04-.17-.12-.21-.2-.25.15-.32.44-.54.62,0-.04.01-.1.02-.15q-.06.02-.61.21c.05-.07.12-.16.18-.23-.7.22-.95.42-1.31.71.07-.23.29-.34.41-.53-.04,0-.09-.02-.13-.03-.51.66-.69.8-.8.88-.44-.08-.5.43-.83.53,0-.04,0-.1,0-.15-.05.02-.11.04-.15.06-.01.08-.07.18-.13.24q-.04-.22.58-1.03c.02.09.07.21.14.27.51-.13.66-.44.96-1.05-.03-.03-.07-.07-.1-.1.03-.05.07-.12.09-.17-.03-.03-.08-.07-.11-.09-1,.4-3.43,2.13-4.71,4.14.08-.06.18-.16.25-.24-.2.4-.48.76-.63,1.18,0,0,.29-.31.82-1.1.65-.51,1.01-1.28,1.63-1.81.37-.39.42-.43.65-.61-.25.88-1.32,1.05-1.64,1.88.04.02.1.04.14.05.05-.03.11-.06.15-.08.02.03.06.08.08.11-.37.32-.67.69-1.01,1.03-.01,0-.01,0-.01,0h0s.04-.08.06-.12c-.04,0-.1,0-.14,0-.12.18-.26.44-.37.63-.07.08-.16.19-.22.28,0-.04-.01-.1-.02-.14q-.27.29-.35.35s-.05-.08-.07-.12c.08-.2.1-.26.6-1.06,0,0-.85,1.15-1.4,2.4-.15.38-.25.65-.34.92-.21.62-.37,1.26-.49,1.91.02-.08.04-.15.06-.24.06-.26.09-.39.12-.52.08-.08.16-.2.21-.3-.05.37.09.76.06,1.13.04-.18.06-.35.06-.54-.13-.41.11-.94.11-.94.07.81-.24,1.62.03,2.42.05-.06.1-.16.11-.24.04,0,.11.04.15.02q-.04-.1.04-.89c.4.38.05.88.22,1.3.04,0,.1-.01.14-.02.02-.05.05-.11.07-.16.03.05.06.11.08.16.1,0,.24-.03.32-.09.34.51-.42,1.48-.44,1.48-.41-.07-.66-.33-.76-.43-.04,0-.1.01-.14.02-.02.18-.02.35-.05.53-.26-.14-.27-.19-.37-1.74-.05.03-.11.07-.16.1,0,.04-.02.1-.03.14-.06.57-.08,1.06-.08,1.55,0,.81.07,1.61.19,2.39.13.78.31,1.54.56,2.27.1.31.22.62.34.93,1.12,1.38,1.79,3.08,2.99,4.41.42.46,2.63,2.41,3.14,2.38,0-.04.01-.1.02-.15-.43-.49-.78-1.04-1.23-1.51-.45-.48-.46-1.19-.86-1.7-.84-1.07-1.07-1.35-1-2.07.09-.89.71-1.72.29-2.67-.37.3-.56.32-.81.35-.05-.09-.12-.21-.18-.3,0,0,1.06-.96,1.47-1.04.65-1.06.61-1.62-.12-1.79-.02-.13-.05-.3-.07-.43-.09.45-.35.49-.64.52q-.5-1.29-.5-1.33c.07-.05.18-.1.27-.11.19.53.43,1.19.87.75.64.55,1.7.17,2.2,1.02.05-.02.12-.04.17-.06.02.04.05.09.07.13-.03.02-.08.05-.11.08.06.42.41.25.41.25.04-.03.06-.09.08-.13.42,1.78.87,2.77,1.35,2.92.08-.07.17-.19.23-.28.25-.43-.09-.93.15-1.37.29-.52.99-.61,1.26-1.16q.6-.06.77-.25c.19.49,1.05.72.72,1.38.2.19.31.12.64-.13.42.35.46.93.5,1.5,0-.14.02-.28.16-.6q.36.03.58.4c.39.07.54.14.44.52.23-.12.65-.34.79-.52.03-.04.08-.1.11-.15.52-.75-.99-1.01-.64-1.82q.14-.32,1.17-.46c1.44-.19,1.95-1.22,2.14-1.6.37-.73-.21-1.32-.31-1.98.16-.12.35-.14.52-.22,0-.42-.28-.42-.53-.29-.13-.04-.3-.12-.39-.22.1-.2.56-.61.71-.69q.1.2.05.52c.41-.29.53-.29.69-.29q.21.65.31.66.02.84.07.88.47-.23.2-1.44.78-.93.92-.9c1.33-.9,1.16-1.95,1.05-2.65.03-.47-.12-.66-.29-.84q-.49.07-.83-.2c.25-.52.52-1.03.76-1.55.37.1.74-.02,1.11,0,.1.12.16.18.57.16.03-.34-.3-.71.07-1.02.04.01.09.03.13.04.03.11.09.26.13.36.04-.01.1-.03.15-.04.02-.1.05-.24.06-.34.03.02.08.05.12.07.1.6-.29,1.14-.18,1.74,0,.01.61,1.66.85,1.89.04-.03.09-.06.12-.09.01-.25-.13-.51.04-.75l-.5-2.21s.07-.06.11-.09c.04.02.1.05.14.07.01-.05.03-.12.04-.17.1,0,.23.04.31.1.05-.27-.01-.55.03-.82q.2.04.41.24ZM41.09,97.61c-.14-.5-.22-.77-.3-.91.04.05.1.16.31.95,0-.01,0-.03-.01-.04ZM42.62,101.04c-.14-.2-.23-.3-.3-.39-.08-.09-.24-.11-.26-.25-.09-.45-.28-.63-.38-.72,0-.17-.04-.39-.07-.49-.06-.22-.17-.42-.24-.63-.15-.51-.26-.91-.26-.91,0,0,.03-.18.11-.09.03.03.18.38.18.39.02.04.04.1.06.15.04.11.04.24.08.36.04.1.12.17.17.27.09.2.08.44.22.62q.15.2.76,1.79s-.04-.07-.06-.1Z"></path><path class="st6" d="M39.53,94.13s-.01.06-.02.09c0-.03.01-.06.02-.09Z"></path><path class="st6" d="M39.46,94.58s.01-.08.02-.12c0,.01,0,.02,0,.03,0,.03,0,.06-.01.09Z"></path><path class="st6" d="M40.92,90.11s0,0,0,0c0-.02.02-.04.03-.06,0,.02-.02.04-.03.06Z"></path><path class="st6" d="M40.51,90.97c.04-.1.11-.26.26-.56,0,0,0,0,0-.01h0c-.11.22-.22.45-.32.68.02-.04.03-.07.05-.11Z"></path><path class="st6" d="M40.78,90.4h0c.05-.1.09-.19.14-.29-.05.1-.09.17-.14.29Z"></path><path class="st6" d="M48.66,101.69c-.15.1-.14.53.02.65.06.05.3.12.27-.18,0-.08-.02-.26-.29-.48Z"></path><path class="st6" d="M53.85,104.13c-.48-.23-.55-.43-.58-.52-.12-.34-1.27-1.03-1.66-1.1.19.15.83.68.95.98.1.24.26.49.47.74.11.13.32.35.49.41.09.03.33.11.35-.14,0-.09,0-.24-.02-.37Z"></path><path class="st6" d="M55.68,105.12h0s0,0,0,0c-.28-.04-.5-.26-.79-.27-.15,0-.3.03-.46,0-.11-.03-.17-.08-.2-.11-.04-.04-.11-.04-.15-.04-.16,0-.2.05-.22.07-.04.08.19.21.36.26.18.06.37.03.55.06.12.02.24.06.36.09.27.05.54-.05.54-.05Z"></path><path class="st6" d="M54.49,103.27c-.18.24-.02.36.04.41.06.05.2.15.16.45.37-.1.73.13.73.13.14.11.46.17.52-.36.08-.04.25-.11.3-.47.2.07.27-.03.28-.06h0s0-.04-.02-.05c-.04-.02-.08,0-.11-.02-.05-.02-.27-.18-.24-.39q0-.06.32-.15s-.05,0-.07-.08c.05-.04.13-.09.12-.15-.17-.04-.26-.23-.45-.24-.01,0-.04,0-.06.01-.12.08-.15.23-.27.31-.07.05-.17,0-.23.07-.02.02-.05.01-.06.04-.02.04.01.08,0,.12,0,0,0,.02-.01.03,0,.01-.02.02-.03.02-.06.03-.14,0-.2.04-.09.06-.14.16-.22.24-.08.08-.12.08-.19.05-.14-.06-.24,0-.24,0-.02.01-.05.03-.06.05Z"></path><path class="st6" d="M56.74,103.39s-.07.05-.11.12c-.03.05-.02.11-.05.17,0,.02-.03.02-.04.04t-.01.1c-.01.13-.04.17-.15.28-.06.06-.06.07-.06.09.01.01.02.02.07.02.08.01.09.02.09.12-.02.25-.02.31.04.33h0s.1-.01.1-.09c.02-.36.05-.39.11-.4.03,0,.07.02.12.15.03.07.1.25.18.3.09.05.12-.18.12-.18,0-.06-.08-.05-.1-.09-.02-.05.03-.1.02-.16-.21-.08-.11-.27-.1-.28.02-.04.08-.06.1-.06.06-.02.15-.04.24-.13-.15-.07-.29.03-.43.02h0c-.08,0-.12.08-.19.1-.04-.02,0-.19.1-.27.06-.05.19-.03.28-.02.46.05.6-.16.62-.2,0,0,.05-.1-.03-.12-.02,0-.03,0-.05.04-.06.09-.13.11-.28.14-.16.02-.17.02-.22,0,0,0-.13-.06-.28-.04-.02,0-.04.01-.06.02Z"></path><path class="st6" d="M56.33,105.17s0-.04-.06-.05c0,0-.02,0-.02,0,0,0-.02,0-.02,0-.04,0-.08,0-.11,0-.06,0-.12-.02-.18-.02-.05,0-.11.01-.21.1.02.06.1.07.15.06.04,0,.08,0,.11-.01.06-.01.12-.03.19-.04.04,0,.09,0,.13-.01.02,0,.03-.01.04-.02Z"></path><path class="st6" d="M56.28,105.39s.07,0,.1.02c.05.02.04.07.05.1,0,.02.02.01.03,0,.08-.03.1-.03.1-.05,0-.02-.01-.05-.02-.06-.09-.1-.09-.1-.12-.11-.04,0-.07.01-.11.01-.02,0-.04,0-.05,0,0,0-.01,0-.01,0-.01,0-.02.04-.02.04,0,.02,0,.04.05.06Z"></path><path class="st6" d="M57,105.52s.03-.02.05-.02c.11-.01.2-.08.25-.13q.07-.08.08-.08s.07-.02.1-.02c.14,0,.18-.05.19-.07.03-.05-.04-.06-.1-.06-.13,0-.18.03-.2.05-.06.04-.09.1-.14.14-.05.04-.11.04-.16.08-.06.05-.11.13-.16.2.06-.06.1-.09.1-.09Z"></path><path class="st6" d="M60.93,104.75c-.03-.13.03-.28-.06-.41-.08-.12-.33-.18-.61-.25,0-.02-.03-.04-.05-.04-.06-.02-.39-.13-.52-.11-.1.01-.18.08-.33.21-.04.04-.25.2-.16-.26.03-.17.02-.19-.16-.2-.33,0-.52.04-.55.12.06.08.17.07.22.16.03.05,0,.12.04.17.02.04.08.04.1.09q.02.05.01.18s.01,0,.02,0c.02-.02.04-.03.12-.12.16.16.24.2.43.22.04,0,.13.02.21.1.08.08.2.47-.07.39-.13-.04-.12.03-.09.09.09.19.36-.14.44.05.02.04.02.06.04.15.16.05.23,0,.26,0,.09-.04.12-.15.19-.21.21-.2.33-.01.43.22.03.08.07.16.14.17,0,0,.26.02.28.01.02-.01,0-.04,0-.07-.08-.23-.26-.42-.32-.66Z"></path><path class="st6" d="M56.9,105.2c.09-.02.19-.04.32-.05.01,0,.03,0,.04,0-.05-.02-.12-.02-.17-.03-.1,0-.17.01-.28.03-.02,0-.04.01-.06.01,0,0,0,0-.01,0-.07-.03-.2-.04-.25-.04h0s-.05,0-.06.01c0,0,.08.11.24.11.02,0,.04,0,.23-.04Z"></path><path class="st6" d="M57.76,104.33h0s0,0,0,0c.06,0,.07-.06.07-.06.02-.06-.05-.09-.09-.09,0,0,0,0-.01,0-.01.02-.04.03-.07.04.01.04.04.1.1.1Z"></path><path class="st6" d="M58.04,104.15c-.04.12-.03.16-.02.18t.03,0c.07-.03.14-.06.23-.06.07,0,.14.04.21.04,0,0,.02,0,.02,0,0,0,.03,0,.05-.02.08-.09-.31-.12-.51-.14Z"></path><path class="st6" d="M57.98,103.39s0,0,0,.01c0,.02.01.02.04.04.03.01.05.03.07.05.02.03.01.07,0,.08-.05.19-.03.23-.02.23,0,0,.02,0,.03,0,0,0,.17-.22.17-.22h0s0-.08-.03-.14c-.07-.14-.06-.2.07-.33-.03.02-.3.21-.33.28Z"></path><path class="st6" d="M59,104.87s.03-.04.04-.04c.02-.03.03-.07.05-.11.01-.02.03-.04.04-.06,0-.02,0-.04-.05-.09-.01.03-.11.26-.22.28-.01,0-.03,0-.03.02,0,.02.11.05.17,0Z"></path><path class="st6" d="M58.5,104.87s0,0-.01.02c0,.02-.01.06-.04.09-.02.02-.04.03-.04.03,0,0-.04.04-.05.05,0,0,0,0,0,0,0,0-.01.02,0,.03.01.02.14.02.18-.09h0c.02-.06,0-.13,0-.13Z"></path><path class="st6" d="M58.31,109.76c.45-.44,1.01-.76,1.42-1.24.14-.16.53-.6.36-.81.09-.17.07-.18-.02-.21.14-.32.11-.34-.02-.46-.25-.22.06-.48.04-.72t-.14-.12c.05-.18.15-.57.03-.65-.06.02-.12.12-.28.45-.33.67-.36.68-.44.7-.02,0-.75-.26-.35-.62.23-.21.23-.31,0-.33-.81-.04-.93.15-1.08.39-.08.12-.17.15-.2.14-.02,0-.04-.01-.05-.02.02-.02.06-.07.04-.1-.07-.16-.6-.04-.86.49-.02-.1-.03-.17-.12-.12-.17.09-.14.3-.25.42-.08.08-.12.09-.27.11-.05,0-.49.07-.87.35-.08.06-.19.15-.2.19-.04.12.02.24,0,.37-.01.08-.07.13-.08.21,0,.04.04.16.1.35.13.37.16.51,0,.61-.03.19,0,.23.22.23.16,0,.22-.21.39-.18.18.03.4-.03.4-.03,0,0,.8-.33,1.08-.29.11.02.25.2.16.35-.05.07-.01.11,0,.13.04-.06.08-.11.38-.29,0,0,.02,0,.02.01-.01.04-.03.08-.19.24.02,0,.04-.02.06-.02t-.07.13.08.01c-.02.1-.12.16-.13.27q0,.06.11.16s.06,0,.22-.11c-.03.24.35-.07.52-.01Z"></path><path class="st6" d="M57.45,110.12s-.11.1-.11.15c-.09.08-.16.14-.16.17,0,.08.36-.16.37-.16.03-.02.09-.07.14-.13,0,0-.18.07-.24-.02Z"></path><path class="st6" d="M59.03,96.46c0,.15.09.28.1.28.05.05.09.02.13-.01.17-.16.23-.22.24-.34,0-.09-.06-.39-.27-.42-.14,0-.24.15-.28.24.03.02.09.04.18,0,.02,0,.02,0,.03,0,0,0,0,.01-.03.04-.08.11-.09.18-.1.21Z"></path><path class="st6" d="M61,93.95c-.12.02-.12.03-.12.27,0,.11-.02.41-.16.76q-.04.09-.22.15c-.14.05-.17.2-.27.28-.2.19-.48.06-.7.17-.03.02-.11.06-.19.14-.01.02-.03.04-.05.05,0,0-.03.03-.07.09.19.07.22.04.22.04.21-.18.42-.22.63-.13q-.02.17.02.21c.16.21.26-.12.3-.35.07.03.13.1.2.13.05.02.06.02.12,0,.07-.02.14-.16.19-.26.01.09.05.12.07.13.08.03.35-.01.13-.87.12-.1.16-.22.17-.25.03-.11-.02-.54-.27-.58Z"></path><path class="st6" d="M61.42,93.74c.09-.05.09-.12.1-.15,0-.07,0-.12.11-.13.01,0,.06,0,.15,0,0-.03.01-.06.02-.08h0c.01-.19-.12-.25-.2-.29-.26-.12-.4-.19-.51-.41-.04.01-.06.08-.07.14,0,.14.03.27.03.41,0,.08-.04.12-.05.13-.04.04-.09.02-.13.05-.07.04-.15.22.19.33-.11-.08-.11-.12-.11-.15.14-.09.27.06.33.11.05.05.1.08.16.05Z"></path><path class="st6" d="M61.41,91.66c-.34-.39-.47-.84-.58-1.19-.14-.46-.16-.51-.19-.55-.08.06-.02.45,0,.56.03.18.11.34.14.51.03.19.02.39.05.58,0,.04.02.1.03.14.03.16.16.68.19.78-.01-.06,0-.1,0-.12.01-.04.14-.22.33.13-.02-.27-.28-.41-.33-.66-.06-.27.05-.42.35-.2h0s0,0,0,0Z"></path><path class="st6" d="M62.34,92.64s.03.03.05.01c.05-.03.13-.1.16-.14,0,0,0,0,0,0-.03-.02-.05-.03-.09-.03-.1,0-.13.13-.13.16Z"></path><path class="st6" d="M62.22,92.65c-.09,0-.26.18-.24.32.17-.02.28-.16.28-.27,0-.04-.02-.04-.04-.04Z"></path><path class="st6" d="M59.62,96.37s0,.01,0,.01c.02-.01.06-.21.07-.25,0,0,0-.02,0-.03.02-.06.11-.04.19-.02.05.01.06.01.07,0,0,0,.02-.02.02-.06,0-.13-.15-.2-.19-.2,0,0-.2.03-.25.2,0,0,0,.02,0,.03.02.07.05.13.07.2.01.05.02.08.02.11Z"></path><path class="st6" d="M57.3,98.17c-.17.02-.34.34-.35.36,0,0,0,.31.08.42.05.06.12.04.13.02,0-.01,0-.05,0-.07,0-.09-.01-.15.04-.23.05-.08.11-.15.15-.23.01-.02.03-.06.04-.1h0s.01-.15-.09-.16Z"></path><path class="st6" d="M55.03,99.41s0-.03,0-.03c0,0-.01,0-.04.02-.02.02-.06.04-.1.05-.04.01-.09,0-.13,0-.07,0-.41.19-.29.37.07.1.27.1.37.03.15-.11.19-.44.19-.45Z"></path><path class="st6" d="M61.76,104.09c.06.07.13.15.14.2,0,.02,0,.04-.02.06-.03.03-.06.04-.09.07-.05.04-.08.09-.13.13-.01,0-.03.02-.06.04-.08.03-.19,0-.28-.08.01.06.03.13.04.17.02.05.05.14.16.09.15-.06.5-.33.53-.39h0s0-.16-.02-.19c-.02-.02-.08-.08-.26-.1Z"></path><path class="st6" d="M45.18,106.45c-.06.03-.06.06-.02.13.11.19.29.33.41.5.07.11.1.24.17.34.07.09.49.52.62.57,0,0,.17.06.07-.17,0-.02-.02-.04-.03-.06-.11-.2-.23-.39-.34-.58-.18-.31-.31-.65-.49-.97-.21-.36-.28-.38-.3-.39t.04.22c.11.3.04.33-.13.4Z"></path><path class="st6" d="M48.84,84.36c.07-.24.43-.54,1.06-.89.43-.23,1.16-.57,1.45-.64.13-.03.47-.12.7-.23q.12-.05.15-.09s-.02,0-.02,0c-.2.03-.38.16-.59.17,0,0,0-.01-.01-.01-.87.19-2.32,1.04-2.33,1.05,0,0,0,.01,0,.02-.15.11-.36.13-.47.3,0,0,0,.01,0,.02.01,0,.03,0,.04,0,0,.13-.27.17-.18.3,0,0,.14.01.19,0Z"></path><path class="st6" d="M57.98,101.79c-.13.02-.21.17-.35.15q-.19-.02-.23-.01s-.06.02-.09.04c-.14.11-.15.43-.15.44.03-.05.04-.11.07-.16.01-.03.04-.06.06-.08.04-.03.17-.06.23-.07.05,0,.13,0,.09.07-.04.08-.08.22.11.3.02,0,.1.04.11,0,0-.01,0-.05-.01-.06-.01-.05-.03-.1-.02-.14,0-.08.09-.14.1-.13.02,0,.03.02.05.08.03.1.04.11.05.11,0,0,.03-.02.04-.12h0s.06-.37-.05-.41Z"></path><path class="st6" d="M56.84,100.48s.05.08.09.11c.04.03.07.06.08.09.01.04-.06.06-.03.11.03.05.16.15.22.07.01-.02.07-.14-.03-.18-.02-.01-.06-.03-.02-.17.06-.18.12-.2.17-.23.03-.01.06-.02.07-.06h0s.04-.21-.06-.22c-.01-.09-.03-.22-.29-.23-.01,0-.02,0-.04,0,0,.01-.02.03-.02.05-.04.16.03.31.02.46,0,.05-.02.08-.09.12-.04.02-.07.04-.07.07Z"></path><path class="st6" d="M57.68,101.03s-.01-.11-.06-.14c-.08-.05-.15-.05-.19-.06-.03,0-.05,0-.07.01.18.12.2.25.21.31,0,.01,0,.06.02.08.01,0,.02,0,.05,0,.07-.04.08-.03.11-.03.04.07-.21.25-.23.26-.02,0-.02,0-.04-.04-.05-.12-.17-.13-.23-.13-.04,0-.05.01-.05.05,0,.03.02.2.05.31,0,.02,0,.03,0,.04,0,.01,0,.02-.03.06-.04.06-.07.1-.05.11.02.02.31-.13.31-.13.07-.04.12-.1.18-.14.04-.02.1-.03.14-.04.05-.01.14-.03.18-.16.02-.08,0-.18-.04-.23-.07-.07-.18-.07-.25-.13Z"></path><path class="st6" d="M57.07,101.23s.05-.08.06-.14c.02-.15-.1-.17-.17-.17-.07,0-.09.02-.09.02.09.06.23.17.21.28,0,.02,0,.02,0,.02Z"></path><path class="st6" d="M56.68,101.33s-.01,0-.02.01c-.01.01-.03.06-.05.1-.02.05-.06.14-.11.18-.02.02-.03.02-.06.04-.09.05-.21.13-.27.2-.03.04-.04.07-.02.09,0,0,.02.03.06,0,.08-.05.23-.13.32-.23.03-.03.15-.19.16-.31,0-.04,0-.1-.02-.1Z"></path><path class="st6" d="M59.57,109.99s0,0-.01,0c-.22.1-.41.24-.63.34-.25.11-.51.17-.75.28-.27.13-.29.14-.31.17,0,0,.02,0,.02,0,0,0,0,.01-.01.02.04,0,.29-.09.39-.13.04-.01.88-.36,1.13-.49.07-.04.12-.06.13-.09-.01,0-.02,0-.03,0,0-.06.06-.06.09-.1Z"></path><path class="st6" d="M60.68,109.33c-.24.24-.43.34-.54.39-.06.03-.13.06-.15.08-.04.03-.04.04-.06.07,0,.02-.03.05-.18.13q-.18.1-.18.12s.02.01.13-.05c.17-.08.32-.19.48-.27.06-.03.13-.04.19-.07.05-.03.12-.07.22-.13.11-.07.12-.08.12-.1-.07.01-.12.09-.2.08,0,0,0,0,0,0,.06-.1.19-.12.24-.22-.02.01-.04.03-.07.03,0,0,0,0,0,0,.01-.04.07-.08.11-.11.12-.08.18-.17.19-.22,0,0,0,0,0,0t-.29.28Z"></path></g></g></g></g></g></svg>